<svg xmlns="http://www.w3.org/2000/svg" version="1.1" xmlns:xlink="http://www.w3.org/1999/xlink" viewBox="0 0 16.661211932586838 15.910561639314597"><g transform="matrix(0.8542640257459386,0,0,0.8542640257459386,2.3734395773418715,12.56311569807653)"><rect width="19.375526396911958" height="19.375526396911958" x="-2.7143144643251196" y="-15.081686785950717" fill="#ffffff"></rect><g transform="matrix(1,0,0,1,0,0)" clip-path="url(#SvgjsClipPath47665)"><g clip-path="url(#ce579c283-eff0-492a-963d-839a0817ea3b8f4a8627-54eb-4d59-88d0-c7188500a2d7)"><path d=" M 11.654892653812484 -11.098903815309967 L 7.106994777169095 -11.098903815309967 L 4.833280314918581 -7.160409247668235 L 7.106994777169095 -3.2219146800265026 L 11.654892653812484 -3.2219146800265026 L 13.92884159213418 -7.160409247668235 Z M 10.689085716614395 -6.780558012353618 L 9.760794950805407 -6.780558012353618 L 9.760794950805407 -5.852267246544628 L 9.001326956247356 -5.852267246544628 L 9.001326956247356 -6.780558012353618 L 8.073036190438366 -6.780558012353618 L 8.073036190438366 -7.540026006911669 L 9.001326956247356 -7.540026006911669 L 9.001326956247356 -8.468316772720659 L 9.760794950805407 -8.468316772720659 L 9.760794950805407 -7.540026006911669 L 10.689085716614395 -7.540026006911669 Z" fill="#b3e6fa" transform="matrix(1,0,0,1,0,0)" fill-rule="nonzero"></path></g><g clip-path="url(#de579c283-eff0-492a-963d-839a0817ea3b8f4a8627-54eb-4d59-88d0-c7188500a2d7)"><path d=" M 1.6240063286524393 -4.373661141671808 L 0.017845241056686945 -7.155485250173416 L 1.6240063286524393 -9.937543834746204 L 4.836328503843944 -9.937543834746204 L 6.4424895914396965 -7.155485250173416 L 4.836328503843944 -4.373661141671808 Z" fill="#80d5ed" transform="matrix(1,0,0,1,0,0)" fill-rule="nonzero"></path></g><g clip-path="url(#ee579c283-eff0-492a-963d-839a0817ea3b8f4a8627-54eb-4d59-88d0-c7188500a2d7)"><path d=" M 6.439910354656696 -7.154078393746325 L 4.8290597456373066 -7.154078393746325 L 4.8290597456373066 -11.99225764651286 L 6.439910354656696 -11.99225764651286 Z" fill="#5db0e6" transform="matrix(1,0,0,1,0,0)" fill-rule="nonzero"></path></g><g clip-path="url(#fe579c283-eff0-492a-963d-839a0817ea3b8f4a8627-54eb-4d59-88d0-c7188500a2d7)"><path d=" M 2.7600428935285595 -2.390228055544439 L 8.516664917114445 -2.390228055544439 L 8.85220017497569 -2.9761837574279113 L 5.635657430502912 -8.547100732637764 L 2.4172388774606777 -2.972432140289003 Z" fill="#5db0e6" transform="matrix(1,0,0,1,0,0)" fill-rule="nonzero"></path></g></g><g><path d=" M 0.1655775 1.1874749999999996 Q 0.14718 1.1874749999999996 0.1354725 1.1757674999999996 Q 0.123765 1.1640599999999997 0.123765 1.1456624999999996 L 0.123765 0.05853749999999969 Q 0.123765 0.04013999999999962 0.1354725 0.02843249999999964 Q 0.14718 0.016724999999999657 0.1655775 0.016724999999999657 L 0.9115125 0.016724999999999657 Q 0.92991 0.016724999999999657 0.9416175 0.02843249999999964 Q 0.953325 0.04013999999999962 0.953325 0.05853749999999969 L 0.953325 0.20069999999999966 Q 0.953325 0.2190974999999996 0.9416175 0.2308049999999996 Q 0.92991 0.2425124999999997 0.9115125 0.2425124999999997 L 0.384675 0.2425124999999997 L 0.384675 0.5251649999999997 L 0.8780625 0.5251649999999997 Q 0.8964599999999999 0.5251649999999997 0.9081675 0.5368724999999996 Q 0.919875 0.5485799999999996 0.919875 0.5669774999999997 L 0.919875 0.7091399999999997 Q 0.919875 0.7258649999999996 0.9081675 0.7375724999999996 Q 0.8964599999999999 0.7492799999999996 0.8780625 0.7492799999999996 L 0.384675 0.7492799999999996 L 0.384675 1.1456624999999996 Q 0.384675 1.1640599999999997 0.3729675 1.1757674999999996 Q 0.36125999999999997 1.1874749999999996 0.3428625 1.1874749999999996 L 0.1655775 1.1874749999999996 M 1.182472199707031 1.1874749999999996 Q 1.1640746997070313 1.1874749999999996 1.1523671997070313 1.1757674999999996 Q 1.140659699707031 1.1640599999999997 1.140659699707031 1.1456624999999996 L 1.140659699707031 0.05853749999999969 Q 1.140659699707031 0.04013999999999962 1.1523671997070313 0.02843249999999964 Q 1.1640746997070313 0.016724999999999657 1.182472199707031 0.016724999999999657 L 1.368119699707031 0.016724999999999657 Q 1.3865171997070311 0.016724999999999657 1.3982246997070311 0.02843249999999964 Q 1.409932199707031 0.04013999999999962 1.409932199707031 0.05853749999999969 L 1.409932199707031 0.9633599999999997 L 1.9284071997070311 0.9633599999999997 Q 1.9468046997070312 0.9633599999999997 1.9585121997070312 0.9750674999999996 Q 1.9702196997070311 0.9867749999999996 1.9702196997070311 1.0051724999999996 L 1.9702196997070311 1.1456624999999996 Q 1.9702196997070311 1.1640599999999997 1.9585121997070312 1.1757674999999996 Q 1.9468046997070312 1.1874749999999996 1.9284071997070311 1.1874749999999996 L 1.182472199707031 1.1874749999999996 M 2.0538659326171875 1.1874749999999996 Q 2.038813432617187 1.1874749999999996 2.0287784326171874 1.1766037499999995 Q 2.018743432617187 1.1657324999999996 2.018743432617187 1.1523524999999997 Q 2.018743432617187 1.1439899999999996 2.0204159326171873 1.1372999999999995 L 2.418470932617187 0.06188249999999962 Q 2.4234884326171873 0.04348499999999955 2.438540932617187 0.030104999999999604 Q 2.453593432617187 0.016724999999999657 2.4803534326171874 0.016724999999999657 L 2.6944334326171875 0.016724999999999657 Q 2.7211934326171874 0.016724999999999657 2.7362459326171873 0.030104999999999604 Q 2.751298432617187 0.04348499999999955 2.7563159326171873 0.06188249999999962 L 3.154370932617187 1.1372999999999995 Q 3.1560434326171873 1.1439899999999996 3.1560434326171873 1.1523524999999997 Q 3.1560434326171873 1.1657324999999996 3.1460084326171875 1.1766037499999995 Q 3.1359734326171873 1.1874749999999996 3.1209209326171874 1.1874749999999996 L 2.9469809326171874 1.1874749999999996 Q 2.9218934326171873 1.1874749999999996 2.9101859326171873 1.1757674999999996 Q 2.8984784326171873 1.1640599999999997 2.8951334326171874 1.1540249999999996 L 2.8232159326171873 0.9667049999999996 L 2.351570932617187 0.9667049999999996 L 2.279653432617187 1.1540249999999996 Q 2.276308432617187 1.1640599999999997 2.264600932617187 1.1757674999999996 Q 2.252893432617187 1.1874749999999996 2.2278059326171875 1.1874749999999996 L 2.0538659326171875 1.1874749999999996 M 2.4134534326171875 0.7509524999999997 L 2.7596609326171873 0.7509524999999997 L 2.5873934326171875 0.2692724999999997 L 2.4134534326171875 0.7509524999999997 M 3.7012669995117182 1.2041999999999997 Q 3.5407069995117184 1.2041999999999997 3.4328307495117185 1.1573699999999996 Q 3.324954499511718 1.1105399999999996 3.269761999511718 1.0352774999999996 Q 3.214569499511718 0.9600149999999996 3.2112244995117183 0.8747174999999996 Q 3.2112244995117183 0.8613374999999996 3.221259499511718 0.8504662499999996 Q 3.2312944995117183 0.8395949999999996 3.2463469995117182 0.8395949999999996 L 3.4253044995117183 0.8395949999999996 Q 3.447046999511718 0.8395949999999996 3.458754499511718 0.8487937499999996 Q 3.470461999511718 0.8579924999999996 3.4804969995117183 0.8713724999999997 Q 3.4922044995117183 0.8998049999999996 3.5181282495117183 0.9265649999999996 Q 3.5440519995117183 0.9533249999999996 3.5892094995117185 0.9708862499999996 Q 3.6343669995117183 0.9884474999999996 3.7012669995117182 0.9884474999999996 Q 3.8099794995117184 0.9884474999999996 3.864335749511718 0.9533249999999996 Q 3.918691999511718 0.9182024999999996 3.918691999511718 0.8579924999999996 Q 3.918691999511718 0.8145074999999996 3.8894232495117183 0.7877474999999996 Q 3.8601544995117183 0.7609874999999997 3.797435749511718 0.7392449999999997 Q 3.7347169995117184 0.7175024999999997 3.6310219995117183 0.6924149999999996 Q 3.5055844995117185 0.6656549999999997 3.417778249511718 0.6230062499999997 Q 3.3299719995117183 0.5803574999999996 3.2856507495117184 0.5126212499999996 Q 3.241329499511718 0.44488499999999964 3.241329499511718 0.3445349999999996 Q 3.241329499511718 0.24418499999999965 3.296521999511718 0.16641374999999958 Q 3.3517144995117185 0.08864249999999974 3.4520644995117182 0.044321249999999646 Q 3.5524144995117184 -4.440892098500626e-16 3.6912319995117184 -4.440892098500626e-16 Q 3.803289499511718 -4.440892098500626e-16 3.8894232495117183 0.030104999999999604 Q 3.9755569995117184 0.06020999999999965 4.033258249511718 0.10871249999999955 Q 4.090959499511718 0.15721499999999966 4.121064499511718 0.21240749999999964 Q 4.1511694995117185 0.2675999999999996 4.152841999511718 0.31944749999999966 Q 4.152841999511718 0.3328274999999996 4.142806999511718 0.3436987499999996 Q 4.132771999511718 0.3545699999999996 4.117719499511718 0.3545699999999996 L 3.930399499511718 0.3545699999999996 Q 3.9136744995117185 0.3545699999999996 3.9002944995117184 0.34787999999999963 Q 3.886914499511718 0.34118999999999966 3.878551999511718 0.32446499999999967 Q 3.8685169995117183 0.2809799999999997 3.8191782495117184 0.24836624999999968 Q 3.7698394995117184 0.21575249999999968 3.6912319995117184 0.21575249999999968 Q 3.609279499511718 0.21575249999999968 3.5616132495117183 0.24585749999999962 Q 3.5139469995117185 0.27596249999999967 3.5139469995117185 0.3378449999999996 Q 3.5139469995117185 0.3779849999999997 3.5381982495117184 0.40558124999999967 Q 3.562449499511718 0.43317749999999966 3.6201507495117182 0.4540837499999997 Q 3.6778519995117183 0.4749899999999997 3.7731844995117183 0.5000774999999996 Q 3.9203644995117184 0.5301824999999997 4.0123519995117185 0.5719949999999996 Q 4.104339499511719 0.6138074999999996 4.147824499511718 0.6798712499999996 Q 4.191309499511719 0.7459349999999996 4.191309499511719 0.8462849999999996 Q 4.191309499511719 0.9583424999999997 4.1285907495117184 1.0386224999999996 Q 4.065871999511718 1.1189024999999997 3.956323249511718 1.1615512499999996 Q 3.846774499511718 1.2041999999999997 3.7012669995117182 1.2041999999999997 M 4.4103694335937496 1.1874749999999996 Q 4.391971933593749 1.1874749999999996 4.380264433593749 1.1757674999999996 Q 4.368556933593749 1.1640599999999997 4.368556933593749 1.1456624999999996 L 4.368556933593749 0.05853749999999969 Q 4.368556933593749 0.04013999999999962 4.380264433593749 0.02843249999999964 Q 4.391971933593749 0.016724999999999657 4.4103694335937496 0.016724999999999657 L 4.587654433593749 0.016724999999999657 Q 4.606051933593749 0.016724999999999657 4.617759433593749 0.02843249999999964 Q 4.629466933593749 0.04013999999999962 4.629466933593749 0.05853749999999969 L 4.629466933593749 0.43986749999999963 L 4.974001933593749 0.04850249999999967 Q 4.980691933593749 0.038467499999999655 4.996580683593749 0.027596249999999545 Q 5.012469433593749 0.016724999999999657 5.039229433593749 0.016724999999999657 L 5.241601933593749 0.016724999999999657 Q 5.256654433593749 0.016724999999999657 5.266689433593749 0.027596249999999545 Q 5.276724433593749 0.038467499999999655 5.276724433593749 0.0518474999999996 Q 5.276724433593749 0.06355499999999958 5.270034433593749 0.07191749999999963 L 4.840201933593749 0.5770124999999996 L 5.301811933593749 1.1322824999999996 Q 5.3085019335937496 1.1389724999999997 5.3085019335937496 1.1523524999999997 Q 5.3085019335937496 1.1657324999999996 5.298466933593749 1.1766037499999995 Q 5.288431933593749 1.1874749999999996 5.27337943359375 1.1874749999999996 L 5.064316933593749 1.1874749999999996 Q 5.034211933593749 1.1874749999999996 5.0191594335937495 1.1740949999999997 Q 5.004106933593749 1.1607149999999997 4.999089433593749 1.1556974999999996 L 4.629466933593749 0.7275374999999996 L 4.629466933593749 1.1456624999999996 Q 4.629466933593749 1.1640599999999997 4.617759433593749 1.1757674999999996 Q 4.606051933593749 1.1874749999999996 4.587654433593749 1.1874749999999996 L 4.4103694335937496 1.1874749999999996 M 5.848718616943359 1.1874749999999996 Q 5.831993616943359 1.1874749999999996 5.819449866943359 1.1757674999999996 Q 5.806906116943359 1.1640599999999997 5.806906116943359 1.1456624999999996 L 5.806906116943359 0.05853749999999969 Q 5.806906116943359 0.04013999999999962 5.819449866943359 0.02843249999999964 Q 5.831993616943359 0.016724999999999657 5.848718616943359 0.016724999999999657 L 6.004261116943359 0.016724999999999657 Q 6.029348616943359 0.016724999999999657 6.041892366943359 0.030104999999999604 Q 6.054436116943359 0.04348499999999955 6.059453616943359 0.05017499999999964 L 6.367193616943359 0.6171524999999997 L 6.678278616943359 0.05017499999999964 Q 6.681623616943359 0.04348499999999955 6.6941673669433595 0.030104999999999604 Q 6.706711116943358 0.016724999999999657 6.731798616943359 0.016724999999999657 L 6.887341116943359 0.016724999999999657 Q 6.905738616943359 0.016724999999999657 6.917446116943359 0.02843249999999964 Q 6.929153616943359 0.04013999999999962 6.929153616943359 0.05853749999999969 L 6.929153616943359 1.1456624999999996 Q 6.929153616943359 1.1640599999999997 6.917446116943359 1.1757674999999996 Q 6.905738616943359 1.1874749999999996 6.887341116943359 1.1874749999999996 L 6.716746116943359 1.1874749999999996 Q 6.7000211169433594 1.1874749999999996 6.6883136169433595 1.1757674999999996 Q 6.676606116943359 1.1640599999999997 6.676606116943359 1.1456624999999996 L 6.676606116943359 0.4699724999999997 L 6.464198616943359 0.8680274999999996 Q 6.455836116943359 0.8830799999999996 6.442456116943359 0.8947874999999996 Q 6.429076116943359 0.9064949999999996 6.407333616943359 0.9064949999999996 L 6.328726116943359 0.9064949999999996 Q 6.306983616943359 0.9064949999999996 6.293603616943359 0.8947874999999996 Q 6.280223616943359 0.8830799999999996 6.271861116943359 0.8680274999999996 L 6.059453616943359 0.4699724999999997 L 6.059453616943359 1.1456624999999996 Q 6.059453616943359 1.1640599999999997 6.047746116943359 1.1757674999999996 Q 6.036038616943359 1.1874749999999996 6.019313616943359 1.1874749999999996 L 5.848718616943359 1.1874749999999996 M 7.106387984619141 1.1874749999999996 Q 7.09133548461914 1.1874749999999996 7.08130048461914 1.1766037499999995 Q 7.07126548461914 1.1657324999999996 7.07126548461914 1.1523524999999997 Q 7.07126548461914 1.1439899999999996 7.0729379846191405 1.1372999999999995 L 7.47099298461914 0.06188249999999962 Q 7.47601048461914 0.04348499999999955 7.49106298461914 0.030104999999999604 Q 7.506115484619141 0.016724999999999657 7.53287548461914 0.016724999999999657 L 7.74695548461914 0.016724999999999657 Q 7.7737154846191405 0.016724999999999657 7.78876798461914 0.030104999999999604 Q 7.80382048461914 0.04348499999999955 7.8088379846191405 0.06188249999999962 L 8.20689298461914 1.1372999999999995 Q 8.20856548461914 1.1439899999999996 8.20856548461914 1.1523524999999997 Q 8.20856548461914 1.1657324999999996 8.198530484619141 1.1766037499999995 Q 8.188495484619141 1.1874749999999996 8.17344298461914 1.1874749999999996 L 7.9995029846191406 1.1874749999999996 Q 7.97441548461914 1.1874749999999996 7.96270798461914 1.1757674999999996 Q 7.95100048461914 1.1640599999999997 7.9476554846191405 1.1540249999999996 L 7.87573798461914 0.9667049999999996 L 7.40409298461914 0.9667049999999996 L 7.332175484619141 1.1540249999999996 Q 7.32883048461914 1.1640599999999997 7.31712298461914 1.1757674999999996 Q 7.30541548461914 1.1874749999999996 7.280327984619141 1.1874749999999996 L 7.106387984619141 1.1874749999999996 M 7.465975484619141 0.7509524999999997 L 7.81218298461914 0.7509524999999997 L 7.639915484619141 0.2692724999999997 L 7.465975484619141 0.7509524999999997 M 8.392506185302734 1.1874749999999996 Q 8.374108685302735 1.1874749999999996 8.362401185302735 1.1757674999999996 Q 8.350693685302735 1.1640599999999997 8.350693685302735 1.1456624999999996 L 8.350693685302735 0.05853749999999969 Q 8.350693685302735 0.04013999999999962 8.362401185302735 0.02843249999999964 Q 8.374108685302735 0.016724999999999657 8.392506185302734 0.016724999999999657 L 8.544703685302734 0.016724999999999657 Q 8.569791185302735 0.016724999999999657 8.581498685302735 0.02843249999999964 Q 8.593206185302735 0.04013999999999962 8.596551185302735 0.046829999999999705 L 9.043108685302734 0.7442624999999996 L 9.043108685302734 0.05853749999999969 Q 9.043108685302734 0.04013999999999962 9.054816185302734 0.02843249999999964 Q 9.066523685302734 0.016724999999999657 9.083248685302735 0.016724999999999657 L 9.253843685302735 0.016724999999999657 Q 9.272241185302734 0.016724999999999657 9.283948685302734 0.02843249999999964 Q 9.295656185302734 0.04013999999999962 9.295656185302734 0.05853749999999969 L 9.295656185302734 1.1456624999999996 Q 9.295656185302734 1.1623874999999997 9.283948685302734 1.1749312499999995 Q 9.272241185302734 1.1874749999999996 9.253843685302735 1.1874749999999996 L 9.099973685302734 1.1874749999999996 Q 9.074886185302734 1.1874749999999996 9.064014935302735 1.1749312499999995 Q 9.053143685302734 1.1623874999999997 9.048126185302735 1.1573699999999996 L 8.603241185302734 0.48167999999999966 L 8.603241185302734 1.1456624999999996 Q 8.603241185302734 1.1640599999999997 8.591533685302734 1.1757674999999996 Q 8.579826185302734 1.1874749999999996 8.561428685302735 1.1874749999999996 L 8.392506185302734 1.1874749999999996 M 9.47296241821289 1.1874749999999996 Q 9.45790991821289 1.1874749999999996 9.447874918212891 1.1766037499999995 Q 9.437839918212891 1.1657324999999996 9.437839918212891 1.1523524999999997 Q 9.437839918212891 1.1439899999999996 9.43951241821289 1.1372999999999995 L 9.83756741821289 0.06188249999999962 Q 9.842584918212891 0.04348499999999955 9.85763741821289 0.030104999999999604 Q 9.87268991821289 0.016724999999999657 9.899449918212891 0.016724999999999657 L 10.11352991821289 0.016724999999999657 Q 10.14028991821289 0.016724999999999657 10.155342418212891 0.030104999999999604 Q 10.17039491821289 0.04348499999999955 10.17541241821289 0.06188249999999962 L 10.573467418212891 1.1372999999999995 Q 10.57513991821289 1.1439899999999996 10.57513991821289 1.1523524999999997 Q 10.57513991821289 1.1657324999999996 10.56510491821289 1.1766037499999995 Q 10.55506991821289 1.1874749999999996 10.54001741821289 1.1874749999999996 L 10.36607741821289 1.1874749999999996 Q 10.340989918212891 1.1874749999999996 10.329282418212891 1.1757674999999996 Q 10.317574918212891 1.1640599999999997 10.31422991821289 1.1540249999999996 L 10.24231241821289 0.9667049999999996 L 9.77066741821289 0.9667049999999996 L 9.69874991821289 1.1540249999999996 Q 9.69540491821289 1.1640599999999997 9.68369741821289 1.1757674999999996 Q 9.67198991821289 1.1874749999999996 9.64690241821289 1.1874749999999996 L 9.47296241821289 1.1874749999999996 M 9.83254991821289 0.7509524999999997 L 10.178757418212891 0.7509524999999997 L 10.00648991821289 0.2692724999999997 L 9.83254991821289 0.7509524999999997 M 11.162128619384765 1.2041999999999997 Q 11.004913619384766 1.2041999999999997 10.893692369384766 1.1515162499999996 Q 10.782471119384764 1.0988324999999997 10.721424869384766 0.9976462499999996 Q 10.660378619384765 0.8964599999999996 10.655361119384764 0.7526249999999997 Q 10.653688619384765 0.6807074999999996 10.653688619384765 0.5987549999999996 Q 10.653688619384765 0.5168024999999996 10.655361119384764 0.4432124999999997 Q 10.660378619384765 0.3027224999999997 10.721424869384766 0.2040449999999997 Q 10.782471119384764 0.10536749999999961 10.895364869384766 0.052683749999999696 Q 11.008258619384765 -4.440892098500626e-16 11.162128619384765 -4.440892098500626e-16 Q 11.285893619384765 -4.440892098500626e-16 11.379553619384765 0.03177749999999957 Q 11.473213619384765 0.06355499999999958 11.536768619384766 0.11456624999999976 Q 11.600323619384765 0.1655774999999997 11.633773619384765 0.2257874999999997 Q 11.667223619384766 0.2859974999999997 11.668896119384765 0.34118999999999966 Q 11.668896119384765 0.3562424999999997 11.658861119384765 0.3671137499999997 Q 11.648826119384765 0.3779849999999997 11.632101119384766 0.3779849999999997 L 11.424711119384765 0.3779849999999997 Q 11.407986119384764 0.3779849999999997 11.398787369384765 0.3712949999999996 Q 11.389588619384766 0.3646049999999996 11.382898619384765 0.3512249999999997 Q 11.371191119384765 0.32111999999999963 11.345267369384764 0.2901787499999996 Q 11.319343619384766 0.2592374999999997 11.275858619384765 0.23749499999999968 Q 11.232373619384765 0.21575249999999968 11.162128619384765 0.21575249999999968 Q 11.056761119384765 0.21575249999999968 10.995714869384765 0.27094499999999966 Q 10.934668619384766 0.32613749999999964 10.929651119384765 0.4515749999999996 Q 10.924633619384766 0.5954099999999997 10.929651119384765 0.7442624999999996 Q 10.934668619384766 0.8747174999999996 10.997387369384764 0.9315824999999996 Q 11.060106119384765 0.9884474999999996 11.165473619384766 0.9884474999999996 Q 11.234046119384764 0.9884474999999996 11.288402369384766 0.9641962499999996 Q 11.342758619384766 0.9399449999999996 11.374536119384766 0.8880974999999997 Q 11.406313619384765 0.8362499999999996 11.406313619384765 0.7559699999999996 L 11.406313619384765 0.7141574999999996 L 11.224011119384766 0.7141574999999996 Q 11.207286119384765 0.7141574999999996 11.195578619384765 0.7016137499999997 Q 11.183871119384765 0.6890699999999996 11.183871119384765 0.6723449999999996 L 11.183871119384765 0.5653049999999996 Q 11.183871119384765 0.5469074999999997 11.195578619384765 0.5351999999999997 Q 11.207286119384765 0.5234924999999996 11.224011119384766 0.5234924999999996 L 11.633773619384765 0.5234924999999996 Q 11.652171119384764 0.5234924999999996 11.663878619384764 0.5351999999999997 Q 11.675586119384764 0.5469074999999997 11.675586119384764 0.5653049999999996 L 11.675586119384764 0.7476074999999996 Q 11.675586119384764 0.8914424999999997 11.612867369384766 0.9934649999999996 Q 11.550148619384766 1.0954874999999995 11.433909869384765 1.1498437499999996 Q 11.317671119384766 1.2041999999999997 11.162128619384765 1.2041999999999997 M 11.919807868652343 1.1874749999999996 Q 11.901410368652344 1.1874749999999996 11.889702868652344 1.1757674999999996 Q 11.877995368652345 1.1640599999999997 11.877995368652345 1.1456624999999996 L 11.877995368652345 0.05853749999999969 Q 11.877995368652345 0.04013999999999962 11.889702868652344 0.02843249999999964 Q 11.901410368652344 0.016724999999999657 11.919807868652343 0.016724999999999657 L 12.677450368652345 0.016724999999999657 Q 12.695847868652343 0.016724999999999657 12.707555368652343 0.02843249999999964 Q 12.719262868652343 0.04013999999999962 12.719262868652343 0.05853749999999969 L 12.719262868652343 0.1923374999999996 Q 12.719262868652343 0.2090624999999996 12.707555368652343 0.2207699999999997 Q 12.695847868652343 0.23247749999999967 12.677450368652345 0.23247749999999967 L 12.135560368652344 0.23247749999999967 L 12.135560368652344 0.4950599999999996 L 12.640655368652343 0.4950599999999996 Q 12.659052868652344 0.4950599999999996 12.670760368652344 0.5067674999999996 Q 12.682467868652344 0.5184749999999997 12.682467868652344 0.5368724999999996 L 12.682467868652344 0.6606374999999997 Q 12.682467868652344 0.6773624999999996 12.670760368652344 0.6890699999999996 Q 12.659052868652344 0.7007774999999996 12.640655368652343 0.7007774999999996 L 12.135560368652344 0.7007774999999996 L 12.135560368652344 0.9717224999999996 L 12.690830368652344 0.9717224999999996 Q 12.709227868652343 0.9717224999999996 12.720935368652343 0.9834299999999996 Q 12.732642868652343 0.9951374999999996 12.732642868652343 1.0135349999999996 L 12.732642868652343 1.1456624999999996 Q 12.732642868652343 1.1640599999999997 12.720935368652343 1.1757674999999996 Q 12.709227868652343 1.1874749999999996 12.690830368652344 1.1874749999999996 L 11.919807868652343 1.1874749999999996 M 12.971818535156249 1.1874749999999996 Q 12.95342103515625 1.1874749999999996 12.94171353515625 1.1757674999999996 Q 12.93000603515625 1.1640599999999997 12.93000603515625 1.1456624999999996 L 12.93000603515625 0.05853749999999969 Q 12.93000603515625 0.04013999999999962 12.94171353515625 0.02843249999999964 Q 12.95342103515625 0.016724999999999657 12.971818535156249 0.016724999999999657 L 13.41503103515625 0.016724999999999657 Q 13.62409353515625 0.016724999999999657 13.74451353515625 0.11289374999999957 Q 13.864933535156249 0.2090624999999996 13.864933535156249 0.38969249999999966 Q 13.864933535156249 0.5117849999999996 13.806396035156249 0.5937374999999996 Q 13.747858535156249 0.6756899999999997 13.64918103515625 0.7158299999999996 L 13.88500353515625 1.1339549999999996 Q 13.890021035156249 1.1439899999999996 13.890021035156249 1.1523524999999997 Q 13.890021035156249 1.1657324999999996 13.87998603515625 1.1766037499999995 Q 13.86995103515625 1.1874749999999996 13.854898535156249 1.1874749999999996 L 13.669251035156249 1.1874749999999996 Q 13.63914603515625 1.1874749999999996 13.62409353515625 1.1715862499999996 Q 13.609041035156249 1.1556974999999996 13.60235103515625 1.1423174999999997 L 13.39830603515625 0.7593149999999996 L 13.19593353515625 0.7593149999999996 L 13.19593353515625 1.1456624999999996 Q 13.19593353515625 1.1640599999999997 13.18422603515625 1.1757674999999996 Q 13.17251853515625 1.1874749999999996 13.15412103515625 1.1874749999999996 L 12.971818535156249 1.1874749999999996 M 13.19593353515625 0.5469074999999997 L 13.41001353515625 0.5469074999999997 Q 13.50200103515625 0.5469074999999997 13.546322285156249 0.5050949999999996 Q 13.59064353515625 0.4632824999999996 13.59064353515625 0.3880199999999996 Q 13.59064353515625 0.3127574999999997 13.54715853515625 0.2692724999999997 Q 13.50367353515625 0.2257874999999997 13.41001353515625 0.2257874999999997 L 13.19593353515625 0.2257874999999997 L 13.19593353515625 0.5469074999999997" fill="#ffffff" fill-rule="nonzero"></path></g><g></g></g><defs><clipPath id="SvgjsClipPath47665"><path d=" M 0.017845241056686945 -11.992047174989477 h 13.911206986148345 v 9.601994976938066 h -13.911206986148345 Z"></path></clipPath><clipPath id="ce579c283-eff0-492a-963d-839a0817ea3b8f4a8627-54eb-4d59-88d0-c7188500a2d7"><path d=" M 4.598804243736718 -11.333379886491828 L 14.163786615458402 -11.333379886491828 L 14.163786615458402 -2.9874386088446414 L 4.598804243736718 -2.9874386088446414 Z"></path></clipPath><clipPath id="de579c283-eff0-492a-963d-839a0817ea3b8f4a8627-54eb-4d59-88d0-c7188500a2d7"><path d=" M -0.21663083012517476 -10.172019905928067 L 6.676965662621559 -10.172019905928067 L 6.676965662621559 -4.139185070489946 L -0.21663083012517476 -4.139185070489946 Z"></path></clipPath><clipPath id="ee579c283-eff0-492a-963d-839a0817ea3b8f4a8627-54eb-4d59-88d0-c7188500a2d7"><path d=" M 4.594349198384264 -12.22649924162354 L 6.674151949767377 -12.22649924162354 L 6.674151949767377 -6.9196023225644625 L 4.594349198384264 -6.9196023225644625 Z"></path></clipPath><clipPath id="fe579c283-eff0-492a-963d-839a0817ea3b8f4a8627-54eb-4d59-88d0-c7188500a2d7"><path d=" M 2.182528330207634 -8.781576803819627 L 9.08644177008637 -8.781576803819627 L 9.08644177008637 -2.1557519843625776 L 2.182528330207634 -2.1557519843625776 Z"></path></clipPath></defs></svg>