<svg xmlns="http://www.w3.org/2000/svg" version="1.1" xmlns:xlink="http://www.w3.org/1999/xlink" viewBox="0 0 17.960745005341945 6.106155430449176"><g transform="matrix(0.752756203558162,0,0,0.752756203558162,7.748310933616183,2.4549419642254433)"><g transform="matrix(1,0,0,1,0,0)" clip-path="url(#SvgjsClipPath50591)"><g clip-path="url(#c8be6ae6d-71de-4f47-8942-6d697bb637ba36421df5-536f-40b2-8afd-736454d2fb1b)"><path d=" M -1.3711913182814062 -0.8742745696707384 L -3.313394049305018 -0.8742745696707384 L -4.284395280627763 0.8076794039838102 L -3.313394049305018 2.4896333776383583 L -1.3711913182814062 2.4896333776383583 L -0.4000899527695996 0.8076794039838102 Z M -1.783644043022913 0.9698967902623346 L -2.180075297514688 0.9698967902623346 L -2.180075297514688 1.36632804475411 L -2.5044099358826752 1.36632804475411 L -2.5044099358826752 0.9698967902623346 L -2.9008411903744507 0.9698967902623346 L -2.9008411903744507 0.6455621518943468 L -2.5044099358826752 0.6455621518943468 L -2.5044099358826752 0.24913089740257122 L -2.180075297514688 0.24913089740257122 L -2.180075297514688 0.6455621518943468 L -1.783644043022913 0.6455621518943468 Z" fill="#b3e6fa" transform="matrix(1,0,0,1,0,0)" fill-rule="nonzero"></path></g><g clip-path="url(#d8be6ae6d-71de-4f47-8942-6d697bb637ba36421df5-536f-40b2-8afd-736454d2fb1b)"><path d=" M -5.65493192630317 1.9977742409716237 L -6.340851121369768 0.8097822219540873 L -5.65493192630317 -0.37830993125251 L -4.283093536169973 -0.37830993125251 L -3.597174341103375 0.8097822219540873 L -4.283093536169973 1.9977742409716237 Z" fill="#80d5ed" transform="matrix(1,0,0,1,0,0)" fill-rule="nonzero"></path></g><g clip-path="url(#e8be6ae6d-71de-4f47-8942-6d697bb637ba36421df5-536f-40b2-8afd-736454d2fb1b)"><path d=" M -3.598275817183044 0.8103830270884522 L -4.286197696030859 0.8103830270884522 L -4.286197696030859 -1.2557858299924523 L -3.598275817183044 -1.2557858299924523 Z" fill="#5db0e6" transform="matrix(1,0,0,1,0,0)" fill-rule="nonzero"></path></g><g clip-path="url(#f8be6ae6d-71de-4f47-8942-6d697bb637ba36421df5-536f-40b2-8afd-736454d2fb1b)"><path d=" M -5.16978178030351 2.8448093462370774 L -2.7113873046713857 2.8448093462370774 L -2.568095280125356 2.594574007774095 L -3.9417360856616472 0.2154858098781367 L -5.316177964710425 2.596176154799068 Z" fill="#5db0e6" transform="matrix(1,0,0,1,0,0)" fill-rule="nonzero"></path></g></g><g><path d=" M 0.109593 0.7859699999999998 Q 0.09741599999999999 0.7859699999999998 0.089667 0.7782209999999998 Q 0.08191799999999999 0.7704719999999998 0.08191799999999999 0.7582949999999998 L 0.08191799999999999 0.03874499999999992 Q 0.08191799999999999 0.026567999999999925 0.089667 0.01881899999999992 Q 0.09741599999999999 0.011069999999999913 0.109593 0.011069999999999913 L 0.6033149999999999 0.011069999999999913 Q 0.6154919999999999 0.011069999999999913 0.6232409999999999 0.01881899999999992 Q 0.6309899999999999 0.026567999999999925 0.6309899999999999 0.03874499999999992 L 0.6309899999999999 0.13283999999999985 Q 0.6309899999999999 0.14501699999999984 0.6232409999999999 0.15276599999999985 Q 0.6154919999999999 0.16051499999999985 0.6033149999999999 0.16051499999999985 L 0.25461 0.16051499999999985 L 0.25461 0.34759799999999985 L 0.581175 0.34759799999999985 Q 0.593352 0.34759799999999985 0.601101 0.35534699999999986 Q 0.60885 0.36309599999999986 0.60885 0.37527299999999986 L 0.60885 0.46936799999999984 Q 0.60885 0.48043799999999987 0.601101 0.48818699999999987 Q 0.593352 0.4959359999999999 0.581175 0.4959359999999999 L 0.25461 0.4959359999999999 L 0.25461 0.7582949999999998 Q 0.25461 0.7704719999999998 0.24686099999999997 0.7782209999999998 Q 0.239112 0.7859699999999998 0.22693499999999997 0.7859699999999998 L 0.109593 0.7859699999999998 M 0.7826587294921874 0.7859699999999998 Q 0.7704817294921874 0.7859699999999998 0.7627327294921875 0.7782209999999998 Q 0.7549837294921875 0.7704719999999998 0.7549837294921875 0.7582949999999998 L 0.7549837294921875 0.03874499999999992 Q 0.7549837294921875 0.026567999999999925 0.7627327294921875 0.01881899999999992 Q 0.7704817294921874 0.011069999999999913 0.7826587294921874 0.011069999999999913 L 0.9055357294921874 0.011069999999999913 Q 0.9177127294921874 0.011069999999999913 0.9254617294921874 0.01881899999999992 Q 0.9332107294921874 0.026567999999999925 0.9332107294921874 0.03874499999999992 L 0.9332107294921874 0.6376319999999999 L 1.2763807294921874 0.6376319999999999 Q 1.2885577294921875 0.6376319999999999 1.2963067294921875 0.6453809999999999 Q 1.3040557294921875 0.6531299999999999 1.3040557294921875 0.6653069999999999 L 1.3040557294921875 0.7582949999999998 Q 1.3040557294921875 0.7704719999999998 1.2963067294921875 0.7782209999999998 Q 1.2885577294921875 0.7859699999999998 1.2763807294921874 0.7859699999999998 L 0.7826587294921874 0.7859699999999998 M 1.359419783203125 0.7859699999999998 Q 1.3494567832031248 0.7859699999999998 1.3428147832031248 0.7787744999999998 Q 1.336172783203125 0.7715789999999998 1.336172783203125 0.7627229999999998 Q 1.336172783203125 0.7571879999999999 1.337279783203125 0.7527599999999999 L 1.6007457832031249 0.04095899999999986 Q 1.6040667832031248 0.028781999999999863 1.614029783203125 0.019925999999999888 Q 1.623992783203125 0.011069999999999913 1.6417047832031249 0.011069999999999913 L 1.783400783203125 0.011069999999999913 Q 1.8011127832031248 0.011069999999999913 1.8110757832031248 0.019925999999999888 Q 1.8210387832031247 0.028781999999999863 1.8243597832031249 0.04095899999999986 L 2.087825783203125 0.7527599999999999 Q 2.088932783203125 0.7571879999999999 2.088932783203125 0.7627229999999998 Q 2.088932783203125 0.7715789999999998 2.082290783203125 0.7787744999999998 Q 2.0756487832031247 0.7859699999999998 2.065685783203125 0.7859699999999998 L 1.950557783203125 0.7859699999999998 Q 1.9339527832031247 0.7859699999999998 1.9262037832031247 0.7782209999999998 Q 1.9184547832031247 0.7704719999999998 1.9162407832031247 0.7638299999999998 L 1.868639783203125 0.6398459999999999 L 1.5564657832031248 0.6398459999999999 L 1.5088647832031248 0.7638299999999998 Q 1.5066507832031248 0.7704719999999998 1.4989017832031248 0.7782209999999998 Q 1.4911527832031248 0.7859699999999998 1.4745477832031249 0.7859699999999998 L 1.359419783203125 0.7859699999999998 M 1.5974247832031248 0.49704299999999985 L 1.8265737832031248 0.49704299999999985 L 1.7125527832031249 0.1782269999999999 L 1.5974247832031248 0.49704299999999985 M 2.4498072158203126 0.7970399999999999 Q 2.3435352158203124 0.7970399999999999 2.2721337158203125 0.7660439999999998 Q 2.200732215820312 0.7350479999999998 2.1642012158203126 0.6852329999999999 Q 2.1276702158203125 0.6354179999999998 2.1254562158203125 0.5789609999999998 Q 2.1254562158203125 0.5701049999999999 2.1320982158203123 0.5629094999999998 Q 2.1387402158203126 0.5557139999999998 2.1487032158203125 0.5557139999999998 L 2.2671522158203126 0.5557139999999998 Q 2.2815432158203124 0.5557139999999998 2.2892922158203124 0.5618024999999999 Q 2.2970412158203124 0.5678909999999998 2.303683215820312 0.5767469999999999 Q 2.311432215820312 0.5955659999999998 2.3285907158203125 0.6132779999999999 Q 2.3457492158203124 0.6309899999999998 2.375638215820312 0.6426134999999998 Q 2.4055272158203125 0.6542369999999998 2.4498072158203126 0.6542369999999998 Q 2.5217622158203126 0.6542369999999998 2.5577397158203126 0.6309899999999998 Q 2.5937172158203126 0.6077429999999998 2.5937172158203126 0.5678909999999998 Q 2.5937172158203126 0.5391089999999998 2.5743447158203123 0.5213969999999999 Q 2.5549722158203125 0.5036849999999999 2.5134597158203125 0.48929399999999984 Q 2.4719472158203124 0.47490299999999985 2.4033132158203125 0.45829799999999987 Q 2.3202882158203124 0.44058599999999987 2.2621707158203126 0.4123574999999999 Q 2.2040532158203123 0.3841289999999999 2.1747177158203126 0.33929549999999986 Q 2.1453822158203124 0.2944619999999999 2.1453822158203124 0.22804199999999986 Q 2.1453822158203124 0.16162199999999993 2.1819132158203125 0.11014649999999993 Q 2.2184442158203126 0.05867099999999992 2.2848642158203125 0.029335499999999848 Q 2.3512842158203124 -1.1102230246251565e-16 2.4431652158203123 -1.1102230246251565e-16 Q 2.5173342158203122 -1.1102230246251565e-16 2.5743447158203123 0.019925999999999888 Q 2.6313552158203124 0.03985199999999989 2.6695467158203123 0.07195499999999988 Q 2.7077382158203123 0.10405799999999987 2.7276642158203126 0.14058899999999985 Q 2.7475902158203125 0.17711999999999983 2.7486972158203122 0.21143699999999988 Q 2.7486972158203122 0.22029299999999985 2.7420552158203124 0.22748849999999987 Q 2.735413215820312 0.2346839999999999 2.725450215820312 0.2346839999999999 L 2.601466215820312 0.2346839999999999 Q 2.5903962158203124 0.2346839999999999 2.5815402158203122 0.2302559999999999 Q 2.5726842158203125 0.22582799999999992 2.5671492158203124 0.2147579999999999 Q 2.560507215820312 0.18597599999999992 2.5278507158203123 0.16438949999999986 Q 2.4951942158203124 0.1428029999999999 2.4431652158203123 0.1428029999999999 Q 2.3889222158203123 0.1428029999999999 2.3573727158203126 0.1627289999999999 Q 2.3258232158203125 0.1826549999999999 2.3258232158203125 0.22361399999999987 Q 2.3258232158203125 0.2501819999999999 2.3418747158203126 0.26844749999999984 Q 2.3579262158203123 0.2867129999999999 2.3961177158203126 0.3005504999999999 Q 2.4343092158203126 0.3143879999999999 2.4974082158203124 0.33099299999999987 Q 2.5948242158203123 0.35091899999999987 2.6557092158203126 0.3785939999999999 Q 2.7165942158203125 0.4062689999999999 2.745376215820312 0.4499954999999999 Q 2.7741582158203126 0.4937219999999999 2.7741582158203126 0.5601419999999999 Q 2.7741582158203126 0.6343109999999998 2.732645715820312 0.6874469999999998 Q 2.6911332158203125 0.7405829999999999 2.6186247158203124 0.7688114999999999 Q 2.5461162158203123 0.7970399999999999 2.4498072158203126 0.7970399999999999 M 2.9191503515624997 0.7859699999999998 Q 2.9069733515625 0.7859699999999998 2.8992243515625 0.7782209999999998 Q 2.8914753515625 0.7704719999999998 2.8914753515625 0.7582949999999998 L 2.8914753515625 0.03874499999999992 Q 2.8914753515625 0.026567999999999925 2.8992243515625 0.01881899999999992 Q 2.9069733515625 0.011069999999999913 2.9191503515624997 0.011069999999999913 L 3.0364923515625 0.011069999999999913 Q 3.0486693515625 0.011069999999999913 3.0564183515625 0.01881899999999992 Q 3.0641673515625 0.026567999999999925 3.0641673515625 0.03874499999999992 L 3.0641673515625 0.29114099999999987 L 3.2922093515624997 0.03210299999999988 Q 3.2966373515624996 0.025460999999999845 3.3071538515624996 0.018265499999999935 Q 3.3176703515624997 0.011069999999999913 3.3353823515625 0.011069999999999913 L 3.4693293515624997 0.011069999999999913 Q 3.4792923515625 0.011069999999999913 3.4859343515625 0.018265499999999935 Q 3.4925763515624997 0.025460999999999845 3.4925763515624997 0.03431699999999993 Q 3.4925763515624997 0.04206599999999994 3.4881483515625 0.04760099999999989 L 3.2036493515625 0.3819149999999999 L 3.5091813515625 0.7494389999999999 Q 3.5136093515624998 0.7538669999999998 3.5136093515624998 0.7627229999999998 Q 3.5136093515624998 0.7715789999999998 3.5069673515625 0.7787744999999998 Q 3.5003253515624997 0.7859699999999998 3.4903623515624997 0.7859699999999998 L 3.3519873515625 0.7859699999999998 Q 3.3320613515625 0.7859699999999998 3.3220983515624996 0.7771139999999999 Q 3.3121353515624996 0.7682579999999999 3.3088143515625 0.7649369999999999 L 3.0641673515625 0.48154499999999983 L 3.0641673515625 0.7582949999999998 Q 3.0641673515625 0.7704719999999998 3.0564183515625 0.7782209999999998 Q 3.0486693515625 0.7859699999999998 3.0364923515625 0.7859699999999998 L 2.9191503515624997 0.7859699999999998 M 3.871169811035156 0.7859699999999998 Q 3.8600998110351563 0.7859699999999998 3.851797311035156 0.7782209999999998 Q 3.843494811035156 0.7704719999999998 3.843494811035156 0.7582949999999998 L 3.843494811035156 0.03874499999999992 Q 3.843494811035156 0.026567999999999925 3.851797311035156 0.01881899999999992 Q 3.8600998110351563 0.011069999999999913 3.871169811035156 0.011069999999999913 L 3.974120811035156 0.011069999999999913 Q 3.9907258110351562 0.011069999999999913 3.9990283110351563 0.019925999999999888 Q 4.007330811035156 0.028781999999999863 4.0106518110351566 0.03320999999999985 L 4.214339811035156 0.4084829999999999 L 4.420241811035156 0.03320999999999985 Q 4.422455811035157 0.028781999999999863 4.430758311035156 0.019925999999999888 Q 4.439060811035156 0.011069999999999913 4.455665811035156 0.011069999999999913 L 4.558616811035156 0.011069999999999913 Q 4.5707938110351565 0.011069999999999913 4.578542811035156 0.01881899999999992 Q 4.5862918110351565 0.026567999999999925 4.5862918110351565 0.03874499999999992 L 4.5862918110351565 0.7582949999999998 Q 4.5862918110351565 0.7704719999999998 4.578542811035156 0.7782209999999998 Q 4.5707938110351565 0.7859699999999998 4.558616811035156 0.7859699999999998 L 4.445702811035156 0.7859699999999998 Q 4.434632811035156 0.7859699999999998 4.4268838110351565 0.7782209999999998 Q 4.419134811035156 0.7704719999999998 4.419134811035156 0.7582949999999998 L 4.419134811035156 0.31106699999999987 L 4.278545811035157 0.5745329999999998 Q 4.273010811035157 0.5844959999999999 4.264154811035156 0.5922449999999999 Q 4.255298811035156 0.5999939999999999 4.240907811035156 0.5999939999999999 L 4.188878811035156 0.5999939999999999 Q 4.174487811035156 0.5999939999999999 4.165631811035156 0.5922449999999999 Q 4.156775811035156 0.5844959999999999 4.151240811035156 0.5745329999999998 L 4.0106518110351566 0.31106699999999987 L 4.0106518110351566 0.7582949999999998 Q 4.0106518110351566 0.7704719999999998 4.002902811035156 0.7782209999999998 Q 3.995153811035156 0.7859699999999998 3.984083811035156 0.7859699999999998 L 3.871169811035156 0.7859699999999998 M 4.703600298339844 0.7859699999999998 Q 4.693637298339844 0.7859699999999998 4.686995298339844 0.7787744999999998 Q 4.680353298339844 0.7715789999999998 4.680353298339844 0.7627229999999998 Q 4.680353298339844 0.7571879999999999 4.681460298339844 0.7527599999999999 L 4.944926298339844 0.04095899999999986 Q 4.948247298339844 0.028781999999999863 4.958210298339844 0.019925999999999888 Q 4.968173298339844 0.011069999999999913 4.985885298339844 0.011069999999999913 L 5.127581298339844 0.011069999999999913 Q 5.145293298339844 0.011069999999999913 5.155256298339844 0.019925999999999888 Q 5.165219298339844 0.028781999999999863 5.168540298339844 0.04095899999999986 L 5.432006298339844 0.7527599999999999 Q 5.433113298339844 0.7571879999999999 5.433113298339844 0.7627229999999998 Q 5.433113298339844 0.7715789999999998 5.426471298339844 0.7787744999999998 Q 5.419829298339844 0.7859699999999998 5.4098662983398444 0.7859699999999998 L 5.294738298339844 0.7859699999999998 Q 5.278133298339844 0.7859699999999998 5.270384298339844 0.7782209999999998 Q 5.262635298339844 0.7704719999999998 5.260421298339844 0.7638299999999998 L 5.212820298339844 0.6398459999999999 L 4.900646298339844 0.6398459999999999 L 4.853045298339844 0.7638299999999998 Q 4.850831298339844 0.7704719999999998 4.843082298339844 0.7782209999999998 Q 4.835333298339844 0.7859699999999998 4.818728298339844 0.7859699999999998 L 4.703600298339844 0.7859699999999998 M 4.941605298339844 0.49704299999999985 L 5.170754298339844 0.49704299999999985 L 5.056733298339844 0.1782269999999999 L 4.941605298339844 0.49704299999999985 M 5.554860596191407 0.7859699999999998 Q 5.542683596191407 0.7859699999999998 5.534934596191407 0.7782209999999998 Q 5.527185596191407 0.7704719999999998 5.527185596191407 0.7582949999999998 L 5.527185596191407 0.03874499999999992 Q 5.527185596191407 0.026567999999999925 5.534934596191407 0.01881899999999992 Q 5.542683596191407 0.011069999999999913 5.554860596191407 0.011069999999999913 L 5.655597596191407 0.011069999999999913 Q 5.672202596191407 0.011069999999999913 5.679951596191406 0.01881899999999992 Q 5.687700596191407 0.026567999999999925 5.689914596191406 0.030995999999999913 L 5.985483596191407 0.49261499999999986 L 5.985483596191407 0.03874499999999992 Q 5.985483596191407 0.026567999999999925 5.993232596191406 0.01881899999999992 Q 6.000981596191407 0.011069999999999913 6.012051596191407 0.011069999999999913 L 6.124965596191407 0.011069999999999913 Q 6.137142596191406 0.011069999999999913 6.144891596191407 0.01881899999999992 Q 6.152640596191406 0.026567999999999925 6.152640596191406 0.03874499999999992 L 6.152640596191406 0.7582949999999998 Q 6.152640596191406 0.7693649999999999 6.144891596191407 0.7776674999999998 Q 6.137142596191406 0.7859699999999998 6.124965596191407 0.7859699999999998 L 6.023121596191407 0.7859699999999998 Q 6.006516596191407 0.7859699999999998 5.999321096191407 0.7776674999999998 Q 5.992125596191407 0.7693649999999999 5.9888045961914065 0.7660439999999998 L 5.694342596191407 0.3188159999999999 L 5.694342596191407 0.7582949999999998 Q 5.694342596191407 0.7704719999999998 5.686593596191407 0.7782209999999998 Q 5.678844596191407 0.7859699999999998 5.666667596191407 0.7859699999999998 L 5.554860596191407 0.7859699999999998 M 6.269996649902344 0.7859699999999998 Q 6.260033649902344 0.7859699999999998 6.253391649902344 0.7787744999999998 Q 6.246749649902344 0.7715789999999998 6.246749649902344 0.7627229999999998 Q 6.246749649902344 0.7571879999999999 6.247856649902344 0.7527599999999999 L 6.511322649902344 0.04095899999999986 Q 6.514643649902344 0.028781999999999863 6.524606649902344 0.019925999999999888 Q 6.534569649902344 0.011069999999999913 6.552281649902344 0.011069999999999913 L 6.693977649902344 0.011069999999999913 Q 6.711689649902344 0.011069999999999913 6.721652649902344 0.019925999999999888 Q 6.731615649902344 0.028781999999999863 6.734936649902345 0.04095899999999986 L 6.998402649902344 0.7527599999999999 Q 6.999509649902344 0.7571879999999999 6.999509649902344 0.7627229999999998 Q 6.999509649902344 0.7715789999999998 6.992867649902344 0.7787744999999998 Q 6.9862256499023445 0.7859699999999998 6.976262649902344 0.7859699999999998 L 6.861134649902344 0.7859699999999998 Q 6.844529649902344 0.7859699999999998 6.8367806499023445 0.7782209999999998 Q 6.829031649902344 0.7704719999999998 6.8268176499023445 0.7638299999999998 L 6.779216649902344 0.6398459999999999 L 6.467042649902345 0.6398459999999999 L 6.419441649902344 0.7638299999999998 Q 6.417227649902344 0.7704719999999998 6.409478649902344 0.7782209999999998 Q 6.401729649902344 0.7859699999999998 6.385124649902345 0.7859699999999998 L 6.269996649902344 0.7859699999999998 M 6.5080016499023445 0.49704299999999985 L 6.737150649902344 0.49704299999999985 L 6.623129649902344 0.1782269999999999 L 6.5080016499023445 0.49704299999999985 M 7.388027731933595 0.7970399999999999 Q 7.2839697319335945 0.7970399999999999 7.210354231933595 0.7621694999999998 Q 7.136738731933594 0.7272989999999998 7.0963332319335946 0.6603254999999999 Q 7.055927731933594 0.5933519999999999 7.0526067319335946 0.49814999999999987 Q 7.051499731933594 0.45054899999999987 7.051499731933594 0.3963059999999999 Q 7.051499731933594 0.3420629999999999 7.0526067319335946 0.29335499999999987 Q 7.055927731933594 0.20036699999999985 7.0963332319335946 0.1350539999999999 Q 7.136738731933594 0.06974099999999994 7.211461231933594 0.034870499999999915 Q 7.286183731933594 -1.1102230246251565e-16 7.388027731933595 -1.1102230246251565e-16 Q 7.469945731933595 -1.1102230246251565e-16 7.531937731933595 0.021032999999999857 Q 7.593929731933594 0.04206599999999994 7.635995731933594 0.07582949999999988 Q 7.678061731933594 0.10959299999999994 7.7002017319335945 0.14944499999999994 Q 7.722341731933595 0.18929699999999994 7.723448731933594 0.22582799999999992 Q 7.723448731933594 0.23579099999999986 7.716806731933595 0.24298649999999988 Q 7.710164731933594 0.2501819999999999 7.699094731933594 0.2501819999999999 L 7.561826731933595 0.2501819999999999 Q 7.550756731933594 0.2501819999999999 7.544668231933595 0.24575399999999992 Q 7.538579731933594 0.24132599999999993 7.534151731933594 0.23246999999999984 Q 7.526402731933595 0.21254399999999984 7.509244231933595 0.19206449999999986 Q 7.492085731933594 0.17158499999999988 7.463303731933594 0.15719399999999983 Q 7.434521731933595 0.1428029999999999 7.388027731933595 0.1428029999999999 Q 7.318286731933594 0.1428029999999999 7.277881231933595 0.17933399999999988 Q 7.2374757319335945 0.21586499999999986 7.234154731933595 0.2988899999999999 Q 7.230833731933594 0.3940919999999999 7.234154731933595 0.49261499999999986 Q 7.2374757319335945 0.5789609999999998 7.278988231933594 0.6165989999999999 Q 7.320500731933595 0.6542369999999998 7.390241731933594 0.6542369999999998 Q 7.435628731933594 0.6542369999999998 7.4716062319335945 0.6381854999999999 Q 7.507583731933594 0.6221339999999999 7.528616731933594 0.5878169999999998 Q 7.549649731933594 0.5534999999999999 7.549649731933594 0.5003639999999998 L 7.549649731933594 0.47268899999999986 L 7.428986731933595 0.47268899999999986 Q 7.417916731933595 0.47268899999999986 7.410167731933594 0.46438649999999987 Q 7.402418731933595 0.4560839999999999 7.402418731933595 0.44501399999999985 L 7.402418731933595 0.3741659999999999 Q 7.402418731933595 0.3619889999999999 7.410167731933594 0.3542399999999999 Q 7.417916731933595 0.3464909999999999 7.428986731933595 0.3464909999999999 L 7.7002017319335945 0.3464909999999999 Q 7.712378731933594 0.3464909999999999 7.720127731933594 0.3542399999999999 Q 7.727876731933595 0.3619889999999999 7.727876731933595 0.3741659999999999 L 7.727876731933595 0.49482899999999985 Q 7.727876731933595 0.5900309999999999 7.686364231933594 0.6575579999999999 Q 7.644851731933595 0.7250849999999999 7.567915231933594 0.7610624999999999 Q 7.490978731933595 0.7970399999999999 7.388027731933595 0.7970399999999999 M 7.889523055664063 0.7859699999999998 Q 7.877346055664063 0.7859699999999998 7.869597055664063 0.7782209999999998 Q 7.861848055664063 0.7704719999999998 7.861848055664063 0.7582949999999998 L 7.861848055664063 0.03874499999999992 Q 7.861848055664063 0.026567999999999925 7.869597055664063 0.01881899999999992 Q 7.877346055664063 0.011069999999999913 7.889523055664063 0.011069999999999913 L 8.390994055664063 0.011069999999999913 Q 8.403171055664062 0.011069999999999913 8.410920055664063 0.01881899999999992 Q 8.418669055664063 0.026567999999999925 8.418669055664063 0.03874499999999992 L 8.418669055664063 0.1273049999999999 Q 8.418669055664063 0.13837499999999991 8.410920055664063 0.14612399999999992 Q 8.403171055664062 0.15387299999999993 8.390994055664063 0.15387299999999993 L 8.032326055664063 0.15387299999999993 L 8.032326055664063 0.32767199999999985 L 8.366640055664062 0.32767199999999985 Q 8.378817055664063 0.32767199999999985 8.386566055664062 0.33542099999999986 Q 8.394315055664062 0.34316999999999986 8.394315055664062 0.35534699999999986 L 8.394315055664062 0.43726499999999985 Q 8.394315055664062 0.4483349999999999 8.386566055664062 0.4560839999999999 Q 8.378817055664063 0.4638329999999999 8.366640055664062 0.4638329999999999 L 8.032326055664063 0.4638329999999999 L 8.032326055664063 0.6431669999999998 L 8.399850055664063 0.6431669999999998 Q 8.412027055664062 0.6431669999999998 8.419776055664062 0.6509159999999998 Q 8.427525055664063 0.6586649999999998 8.427525055664063 0.6708419999999998 L 8.427525055664063 0.7582949999999998 Q 8.427525055664063 0.7704719999999998 8.419776055664062 0.7782209999999998 Q 8.412027055664062 0.7859699999999998 8.399850055664063 0.7859699999999998 L 7.889523055664063 0.7859699999999998 M 8.5858314609375 0.7859699999999998 Q 8.573654460937501 0.7859699999999998 8.5659054609375 0.7782209999999998 Q 8.5581564609375 0.7704719999999998 8.5581564609375 0.7582949999999998 L 8.5581564609375 0.03874499999999992 Q 8.5581564609375 0.026567999999999925 8.5659054609375 0.01881899999999992 Q 8.573654460937501 0.011069999999999913 8.5858314609375 0.011069999999999913 L 8.8791864609375 0.011069999999999913 Q 9.0175614609375 0.011069999999999913 9.0972654609375 0.07472249999999991 Q 9.1769694609375 0.13837499999999991 9.1769694609375 0.2579309999999999 Q 9.1769694609375 0.3387419999999999 9.1382244609375 0.39298499999999986 Q 9.0994794609375 0.44722799999999985 9.0341664609375 0.4737959999999999 L 9.1902534609375 0.7505459999999998 Q 9.1935744609375 0.7571879999999999 9.1935744609375 0.7627229999999998 Q 9.1935744609375 0.7715789999999998 9.1869324609375 0.7787744999999998 Q 9.1802904609375 0.7859699999999998 9.1703274609375 0.7859699999999998 L 9.0474504609375 0.7859699999999998 Q 9.0275244609375 0.7859699999999998 9.0175614609375 0.7754534999999998 Q 9.0075984609375 0.7649369999999999 9.0031704609375 0.7560809999999998 L 8.8681164609375 0.5025779999999999 L 8.7341694609375 0.5025779999999999 L 8.7341694609375 0.7582949999999998 Q 8.7341694609375 0.7704719999999998 8.7264204609375 0.7782209999999998 Q 8.7186714609375 0.7859699999999998 8.7064944609375 0.7859699999999998 L 8.5858314609375 0.7859699999999998 M 8.7341694609375 0.3619889999999999 L 8.8758654609375 0.3619889999999999 Q 8.9367504609375 0.3619889999999999 8.9660859609375 0.3343139999999999 Q 8.9954214609375 0.3066389999999999 8.9954214609375 0.25682399999999983 Q 8.9954214609375 0.2070089999999999 8.9666394609375 0.1782269999999999 Q 8.9378574609375 0.14944499999999994 8.8758654609375 0.14944499999999994 L 8.7341694609375 0.14944499999999994 L 8.7341694609375 0.3619889999999999" fill="#000000" fill-rule="nonzero"></path></g><g><path d=" M 0.0825 1.5891884999999997 Q 0.075 1.5891884999999997 0.070125 1.5843134999999997 Q 0.06525 1.5794384999999997 0.06525 1.5719384999999997 L 0.06525 1.0821884999999996 Q 0.06525 1.0739384999999997 0.070125 1.0690634999999995 Q 0.075 1.0641884999999998 0.0825 1.0641884999999998 L 0.12 1.0641884999999998 Q 0.129 1.0641884999999998 0.1335 1.0686884999999997 Q 0.138 1.0731884999999997 0.1395 1.0761884999999998 L 0.29775 1.3791884999999997 L 0.4575 1.0761884999999998 Q 0.459 1.0731884999999997 0.463125 1.0686884999999997 Q 0.46725 1.0641884999999998 0.47625 1.0641884999999998 L 0.513 1.0641884999999998 Q 0.52125 1.0641884999999998 0.5261250000000001 1.0690634999999995 Q 0.531 1.0739384999999997 0.531 1.0821884999999996 L 0.531 1.5719384999999997 Q 0.531 1.5794384999999997 0.5261250000000001 1.5843134999999997 Q 0.52125 1.5891884999999997 0.513 1.5891884999999997 L 0.47625 1.5891884999999997 Q 0.46875 1.5891884999999997 0.46387500000000004 1.5843134999999997 Q 0.459 1.5794384999999997 0.459 1.5719384999999997 L 0.459 1.2029384999999997 L 0.33375 1.4474384999999996 Q 0.33075 1.4549384999999997 0.32475 1.4590634999999996 Q 0.31875000000000003 1.4631884999999998 0.30975 1.4631884999999998 L 0.28650000000000003 1.4631884999999998 Q 0.27675 1.4631884999999998 0.2715 1.4590634999999996 Q 0.26625 1.4549384999999997 0.2625 1.4474384999999996 L 0.1365 1.2029384999999997 L 0.1365 1.5719384999999997 Q 0.1365 1.5794384999999997 0.131625 1.5843134999999997 Q 0.12675 1.5891884999999997 0.11925000000000001 1.5891884999999997 L 0.0825 1.5891884999999997 M 0.6780047607421875 1.5891884999999997 Q 0.6697547607421875 1.5891884999999997 0.6652547607421875 1.5843134999999997 Q 0.6607547607421875 1.5794384999999997 0.6607547607421875 1.5719384999999997 L 0.6607547607421875 1.0814384999999995 Q 0.6607547607421875 1.0739384999999997 0.6652547607421875 1.0690634999999995 Q 0.6697547607421875 1.0641884999999998 0.6780047607421875 1.0641884999999998 L 0.7177547607421875 1.0641884999999998 Q 0.7260047607421876 1.0641884999999998 0.7305047607421875 1.0690634999999995 Q 0.7350047607421875 1.0739384999999997 0.7350047607421875 1.0814384999999995 L 0.7350047607421875 1.5719384999999997 Q 0.7350047607421875 1.5794384999999997 0.7305047607421875 1.5843134999999997 Q 0.7260047607421876 1.5891884999999997 0.7177547607421875 1.5891884999999997 L 0.6780047607421875 1.5891884999999997 M 0.882762451171875 1.5891884999999997 Q 0.874512451171875 1.5891884999999997 0.870012451171875 1.5843134999999997 Q 0.865512451171875 1.5794384999999997 0.865512451171875 1.5719384999999997 L 0.865512451171875 1.0821884999999996 Q 0.865512451171875 1.0739384999999997 0.870012451171875 1.0690634999999995 Q 0.874512451171875 1.0641884999999998 0.882762451171875 1.0641884999999998 L 0.917262451171875 1.0641884999999998 Q 0.926262451171875 1.0641884999999998 0.9307624511718751 1.0683134999999997 Q 0.935262451171875 1.0724384999999996 0.936012451171875 1.0746884999999997 L 1.185012451171875 1.4571884999999996 L 1.185012451171875 1.0821884999999996 Q 1.185012451171875 1.0739384999999997 1.189512451171875 1.0690634999999995 Q 1.194012451171875 1.0641884999999998 1.2022624511718751 1.0641884999999998 L 1.238262451171875 1.0641884999999998 Q 1.246512451171875 1.0641884999999998 1.251387451171875 1.0690634999999995 Q 1.256262451171875 1.0739384999999997 1.256262451171875 1.0821884999999996 L 1.256262451171875 1.5711884999999997 Q 1.256262451171875 1.5786884999999997 1.251387451171875 1.5839384999999997 Q 1.246512451171875 1.5891884999999997 1.239012451171875 1.5891884999999997 L 1.203012451171875 1.5891884999999997 Q 1.194762451171875 1.5891884999999997 1.1906374511718751 1.5846884999999997 Q 1.186512451171875 1.5801884999999998 1.185012451171875 1.5786884999999997 L 0.9367624511718751 1.1999384999999996 L 0.9367624511718751 1.5719384999999997 Q 0.9367624511718751 1.5794384999999997 0.931887451171875 1.5843134999999997 Q 0.927012451171875 1.5891884999999997 0.918762451171875 1.5891884999999997 L 0.882762451171875 1.5891884999999997 M 1.4040179443359375 1.5891884999999997 Q 1.3957679443359374 1.5891884999999997 1.3912679443359375 1.5843134999999997 Q 1.3867679443359375 1.5794384999999997 1.3867679443359375 1.5719384999999997 L 1.3867679443359375 1.0814384999999995 Q 1.3867679443359375 1.0739384999999997 1.3912679443359375 1.0690634999999995 Q 1.3957679443359374 1.0641884999999998 1.4040179443359375 1.0641884999999998 L 1.4437679443359375 1.0641884999999998 Q 1.4520179443359376 1.0641884999999998 1.4565179443359375 1.0690634999999995 Q 1.4610179443359375 1.0739384999999997 1.4610179443359375 1.0814384999999995 L 1.4610179443359375 1.5719384999999997 Q 1.4610179443359375 1.5794384999999997 1.4565179443359375 1.5843134999999997 Q 1.4520179443359376 1.5891884999999997 1.4437679443359375 1.5891884999999997 L 1.4040179443359375 1.5891884999999997 M 1.608775634765625 1.5891884999999997 Q 1.601275634765625 1.5891884999999997 1.596400634765625 1.5843134999999997 Q 1.591525634765625 1.5794384999999997 1.591525634765625 1.5719384999999997 L 1.591525634765625 1.0821884999999996 Q 1.591525634765625 1.0739384999999997 1.596400634765625 1.0690634999999995 Q 1.601275634765625 1.0641884999999998 1.608775634765625 1.0641884999999998 L 1.646275634765625 1.0641884999999998 Q 1.655275634765625 1.0641884999999998 1.659775634765625 1.0686884999999997 Q 1.664275634765625 1.0731884999999997 1.665775634765625 1.0761884999999998 L 1.824025634765625 1.3791884999999997 L 1.983775634765625 1.0761884999999998 Q 1.985275634765625 1.0731884999999997 1.989400634765625 1.0686884999999997 Q 1.993525634765625 1.0641884999999998 2.002525634765625 1.0641884999999998 L 2.039275634765625 1.0641884999999998 Q 2.047525634765625 1.0641884999999998 2.052400634765625 1.0690634999999995 Q 2.057275634765625 1.0739384999999997 2.057275634765625 1.0821884999999996 L 2.057275634765625 1.5719384999999997 Q 2.057275634765625 1.5794384999999997 2.052400634765625 1.5843134999999997 Q 2.047525634765625 1.5891884999999997 2.039275634765625 1.5891884999999997 L 2.002525634765625 1.5891884999999997 Q 1.995025634765625 1.5891884999999997 1.990150634765625 1.5843134999999997 Q 1.985275634765625 1.5794384999999997 1.985275634765625 1.5719384999999997 L 1.985275634765625 1.2029384999999997 L 1.860025634765625 1.4474384999999996 Q 1.857025634765625 1.4549384999999997 1.8510256347656249 1.4590634999999996 Q 1.845025634765625 1.4631884999999998 1.836025634765625 1.4631884999999998 L 1.812775634765625 1.4631884999999998 Q 1.803025634765625 1.4631884999999998 1.797775634765625 1.4590634999999996 Q 1.7925256347656249 1.4549384999999997 1.788775634765625 1.4474384999999996 L 1.662775634765625 1.2029384999999997 L 1.662775634765625 1.5719384999999997 Q 1.662775634765625 1.5794384999999997 1.657900634765625 1.5843134999999997 Q 1.653025634765625 1.5891884999999997 1.645525634765625 1.5891884999999997 L 1.608775634765625 1.5891884999999997 M 2.1517803955078123 1.5891884999999997 Q 2.1457803955078125 1.5891884999999997 2.1412803955078124 1.5846884999999997 Q 2.1367803955078126 1.5801884999999998 2.1367803955078126 1.5741884999999998 Q 2.1367803955078126 1.5704384999999996 2.1375303955078127 1.5659384999999997 L 2.3235303955078126 1.0806884999999995 Q 2.3265303955078127 1.0731884999999997 2.3317803955078125 1.0686884999999997 Q 2.3370303955078127 1.0641884999999998 2.3475303955078126 1.0641884999999998 L 2.3985303955078123 1.0641884999999998 Q 2.4090303955078127 1.0641884999999998 2.4142803955078125 1.0686884999999997 Q 2.4195303955078127 1.0731884999999997 2.4225303955078124 1.0806884999999995 L 2.6077803955078123 1.5659384999999997 Q 2.6092803955078123 1.5704384999999996 2.6092803955078123 1.5741884999999998 Q 2.6092803955078123 1.5801884999999998 2.6047803955078126 1.5846884999999997 Q 2.6002803955078124 1.5891884999999997 2.5942803955078126 1.5891884999999997 L 2.5560303955078125 1.5891884999999997 Q 2.5470303955078126 1.5891884999999997 2.5429053955078125 1.5846884999999997 Q 2.5387803955078123 1.5801884999999998 2.5372803955078127 1.5764384999999996 L 2.4960303955078125 1.4699384999999996 L 2.2500303955078125 1.4699384999999996 L 2.2087803955078127 1.5764384999999996 Q 2.2080303955078127 1.5801884999999998 2.2035303955078125 1.5846884999999997 Q 2.1990303955078123 1.5891884999999997 2.1900303955078124 1.5891884999999997 L 2.1517803955078123 1.5891884999999997 M 2.2717803955078124 1.4054384999999996 L 2.4742803955078125 1.4054384999999996 L 2.3730303955078127 1.1391884999999997 L 2.2717803955078124 1.4054384999999996 M 2.706767578125 1.5891884999999997 Q 2.698517578125 1.5891884999999997 2.694017578125 1.5843134999999997 Q 2.689517578125 1.5794384999999997 2.689517578125 1.5719384999999997 L 2.689517578125 1.0814384999999995 Q 2.689517578125 1.0739384999999997 2.694017578125 1.0690634999999995 Q 2.698517578125 1.0641884999999998 2.706767578125 1.0641884999999998 L 2.746517578125 1.0641884999999998 Q 2.754017578125 1.0641884999999998 2.7588925781249998 1.0690634999999995 Q 2.763767578125 1.0739384999999997 2.763767578125 1.0814384999999995 L 2.763767578125 1.5239384999999996 L 3.012767578125 1.5239384999999996 Q 3.021017578125 1.5239384999999996 3.025892578125 1.5288134999999996 Q 3.030767578125 1.5336884999999996 3.030767578125 1.5419384999999997 L 3.030767578125 1.5719384999999997 Q 3.030767578125 1.5794384999999997 3.025892578125 1.5843134999999997 Q 3.021017578125 1.5891884999999997 3.012767578125 1.5891884999999997 L 2.706767578125 1.5891884999999997 M 3.1290087890625 1.5891884999999997 Q 3.1207587890625 1.5891884999999997 3.1162587890625 1.5843134999999997 Q 3.1117587890625 1.5794384999999997 3.1117587890625 1.5719384999999997 L 3.1117587890625 1.0814384999999995 Q 3.1117587890625 1.0739384999999997 3.1162587890625 1.0690634999999995 Q 3.1207587890625 1.0641884999999998 3.1290087890625 1.0641884999999998 L 3.1687587890625 1.0641884999999998 Q 3.1770087890625 1.0641884999999998 3.1815087890625 1.0690634999999995 Q 3.1860087890625 1.0739384999999997 3.1860087890625 1.0814384999999995 L 3.1860087890625 1.5719384999999997 Q 3.1860087890625 1.5794384999999997 3.1815087890625 1.5843134999999997 Q 3.1770087890625 1.5891884999999997 3.1687587890625 1.5891884999999997 L 3.1290087890625 1.5891884999999997 M 3.4852664794921875 1.5966884999999997 Q 3.4200164794921877 1.5966884999999997 3.3757664794921873 1.5764384999999996 Q 3.3315164794921874 1.5561884999999998 3.3078914794921874 1.5243134999999997 Q 3.2842664794921874 1.4924384999999996 3.2827664794921874 1.4571884999999996 Q 3.2827664794921874 1.4511884999999998 3.2876414794921875 1.4463134999999996 Q 3.2925164794921873 1.4414384999999996 3.2992664794921875 1.4414384999999996 L 3.3375164794921877 1.4414384999999996 Q 3.3465164794921876 1.4414384999999996 3.3510164794921877 1.4459384999999996 Q 3.3555164794921875 1.4504384999999997 3.3570164794921875 1.4564384999999997 Q 3.3615164794921877 1.4744384999999998 3.3757664794921873 1.4920634999999998 Q 3.3900164794921874 1.5096884999999998 3.4166414794921875 1.5213134999999998 Q 3.4432664794921877 1.5329384999999998 3.4852664794921875 1.5329384999999998 Q 3.5497664794921873 1.5329384999999998 3.5801414794921875 1.5100634999999998 Q 3.6105164794921873 1.4871884999999996 3.6105164794921873 1.4489384999999997 Q 3.6105164794921873 1.4226884999999996 3.5943914794921876 1.4065634999999996 Q 3.5782664794921875 1.3904384999999997 3.5452664794921875 1.3776884999999996 Q 3.5122664794921876 1.3649384999999996 3.4597664794921874 1.3499384999999997 Q 3.4050164794921876 1.3341884999999998 3.3690164794921875 1.3154384999999997 Q 3.3330164794921875 1.2966884999999997 3.3153914794921877 1.2689384999999997 Q 3.2977664794921875 1.2411884999999996 3.2977664794921875 1.1984384999999997 Q 3.2977664794921875 1.1579384999999998 3.3195164794921874 1.1260634999999997 Q 3.3412664794921874 1.0941884999999996 3.3825164794921876 1.0754384999999997 Q 3.4237664794921874 1.0566884999999997 3.4815164794921873 1.0566884999999997 Q 3.5280164794921873 1.0566884999999997 3.5628914794921873 1.0690634999999995 Q 3.5977664794921873 1.0814384999999995 3.6210164794921873 1.1020634999999996 Q 3.6442664794921873 1.1226884999999998 3.6562664794921877 1.1463134999999998 Q 3.6682664794921873 1.1699384999999998 3.6690164794921873 1.1924384999999997 Q 3.6690164794921873 1.1976884999999997 3.6652664794921876 1.2025634999999997 Q 3.6615164794921875 1.2074384999999996 3.6532664794921876 1.2074384999999996 L 3.6135164794921875 1.2074384999999996 Q 3.6082664794921877 1.2074384999999996 3.6026414794921875 1.2044384999999997 Q 3.5970164794921873 1.2014384999999996 3.5940164794921876 1.1931884999999998 Q 3.5895164794921874 1.1624384999999997 3.5595164794921876 1.1414384999999996 Q 3.5295164794921874 1.1204384999999997 3.4815164794921873 1.1204384999999997 Q 3.4327664794921873 1.1204384999999997 3.4023914794921875 1.1391884999999997 Q 3.3720164794921876 1.1579384999999998 3.3720164794921876 1.1976884999999997 Q 3.3720164794921876 1.2231884999999996 3.3862664794921873 1.2400634999999998 Q 3.4005164794921874 1.2569384999999997 3.4312664794921877 1.2696884999999996 Q 3.4620164794921875 1.2824384999999996 3.5115164794921876 1.2966884999999997 Q 3.5715164794921876 1.3131884999999996 3.6097664794921873 1.3315634999999997 Q 3.6480164794921874 1.3499384999999997 3.6663914794921877 1.3773134999999996 Q 3.6847664794921875 1.4046884999999998 3.6847664794921875 1.4474384999999996 Q 3.6847664794921875 1.4946884999999996 3.6600164794921874 1.5280634999999996 Q 3.6352664794921874 1.5614384999999997 3.5906414794921875 1.5790634999999997 Q 3.5460164794921876 1.5966884999999997 3.4852664794921875 1.5966884999999997 M 3.8002734375 1.5891884999999997 Q 3.7927734375 1.5891884999999997 3.7878984375 1.5843134999999997 Q 3.7830234375 1.5794384999999997 3.7830234375 1.5719384999999997 L 3.7830234375 1.0821884999999996 Q 3.7830234375 1.0739384999999997 3.7878984375 1.0690634999999995 Q 3.7927734375 1.0641884999999998 3.8002734375 1.0641884999999998 L 3.8377734375 1.0641884999999998 Q 3.8467734375 1.0641884999999998 3.8512734375 1.0686884999999997 Q 3.8557734375 1.0731884999999997 3.8572734375 1.0761884999999998 L 4.0155234375 1.3791884999999997 L 4.1752734375 1.0761884999999998 Q 4.1767734375 1.0731884999999997 4.1808984375 1.0686884999999997 Q 4.1850234375 1.0641884999999998 4.1940234375 1.0641884999999998 L 4.2307734375 1.0641884999999998 Q 4.2390234375 1.0641884999999998 4.2438984375 1.0690634999999995 Q 4.2487734375 1.0739384999999997 4.2487734375 1.0821884999999996 L 4.2487734375 1.5719384999999997 Q 4.2487734375 1.5794384999999997 4.2438984375 1.5843134999999997 Q 4.2390234375 1.5891884999999997 4.2307734375 1.5891884999999997 L 4.1940234375 1.5891884999999997 Q 4.1865234375 1.5891884999999997 4.1816484375 1.5843134999999997 Q 4.1767734375 1.5794384999999997 4.1767734375 1.5719384999999997 L 4.1767734375 1.2029384999999997 L 4.0515234375 1.4474384999999996 Q 4.0485234375 1.4549384999999997 4.0425234375 1.4590634999999996 Q 4.0365234375 1.4631884999999998 4.0275234375 1.4631884999999998 L 4.0042734375 1.4631884999999998 Q 3.9945234375 1.4631884999999998 3.9892734375 1.4590634999999996 Q 3.9840234375 1.4549384999999997 3.9802734375 1.4474384999999996 L 3.8542734375 1.2029384999999997 L 3.8542734375 1.5719384999999997 Q 3.8542734375 1.5794384999999997 3.8493984375 1.5843134999999997 Q 3.8445234375 1.5891884999999997 3.8370234375 1.5891884999999997 L 3.8002734375 1.5891884999999997 M 4.567528198242187 1.5966884999999997 Q 4.503028198242188 1.5966884999999997 4.457278198242188 1.5745634999999996 Q 4.411528198242188 1.5524384999999996 4.386778198242188 1.5063134999999996 Q 4.362028198242188 1.4601884999999997 4.3590281982421875 1.3904384999999997 Q 4.358278198242187 1.3574384999999998 4.358278198242187 1.3270634999999997 Q 4.358278198242187 1.2966884999999997 4.3590281982421875 1.2636884999999998 Q 4.362028198242188 1.1946884999999996 4.387903198242188 1.1485634999999996 Q 4.413778198242188 1.1024384999999997 4.459903198242188 1.0795634999999997 Q 4.506028198242188 1.0566884999999997 4.567528198242187 1.0566884999999997 Q 4.628278198242188 1.0566884999999997 4.674403198242188 1.0795634999999997 Q 4.720528198242188 1.1024384999999997 4.746778198242188 1.1485634999999996 Q 4.773028198242187 1.1946884999999996 4.775278198242187 1.2636884999999998 Q 4.776778198242187 1.2966884999999997 4.776778198242187 1.3270634999999997 Q 4.776778198242187 1.3574384999999998 4.775278198242187 1.3904384999999997 Q 4.773028198242187 1.4601884999999997 4.747903198242187 1.5063134999999996 Q 4.722778198242188 1.5524384999999996 4.677028198242187 1.5745634999999996 Q 4.631278198242187 1.5966884999999997 4.567528198242187 1.5966884999999997 M 4.567528198242187 1.5329384999999998 Q 4.624528198242188 1.5329384999999998 4.660903198242187 1.4984384999999998 Q 4.697278198242188 1.4639384999999996 4.700278198242188 1.3866884999999995 Q 4.701778198242187 1.3529384999999996 4.701778198242187 1.3263134999999997 Q 4.701778198242187 1.2996884999999998 4.700278198242188 1.2666884999999997 Q 4.698778198242188 1.2149384999999997 4.681153198242187 1.1826884999999996 Q 4.6635281982421875 1.1504384999999997 4.634278198242187 1.1354384999999998 Q 4.605028198242188 1.1204384999999997 4.567528198242187 1.1204384999999997 Q 4.530028198242188 1.1204384999999997 4.5007781982421875 1.1354384999999998 Q 4.471528198242187 1.1504384999999997 4.4539031982421875 1.1826884999999996 Q 4.436278198242188 1.2149384999999997 4.434028198242188 1.2666884999999997 Q 4.433278198242188 1.2996884999999998 4.433278198242188 1.3263134999999997 Q 4.433278198242188 1.3529384999999996 4.434028198242188 1.3866884999999995 Q 4.437028198242188 1.4639384999999996 4.473778198242187 1.4984384999999998 Q 4.510528198242188 1.5329384999999998 4.567528198242187 1.5329384999999998 M 5.2057822265625 1.5891884999999997 Q 5.1982822265625 1.5891884999999997 5.1934072265625 1.5843134999999997 Q 5.1885322265625 1.5794384999999997 5.1885322265625 1.5719384999999997 L 5.1885322265625 1.3949384999999996 L 5.0077822265625 1.0889384999999998 Q 5.0070322265625 1.0866884999999997 5.0062822265625 1.0844384999999996 Q 5.0055322265625 1.0821884999999996 5.0055322265625 1.0791884999999997 Q 5.0055322265625 1.0731884999999997 5.0100322265625 1.0686884999999997 Q 5.0145322265625 1.0641884999999998 5.0205322265625 1.0641884999999998 L 5.0595322265625 1.0641884999999998 Q 5.0662822265625 1.0641884999999998 5.0715322265625 1.0675634999999997 Q 5.0767822265625 1.0709384999999996 5.0790322265625 1.0769384999999998 L 5.2252822265625 1.3199384999999997 L 5.3715322265625 1.0769384999999998 Q 5.3752822265625 1.0709384999999996 5.3801572265625 1.0675634999999997 Q 5.3850322265625 1.0641884999999998 5.3917822265625 1.0641884999999998 L 5.4300322265625 1.0641884999999998 Q 5.4367822265625 1.0641884999999998 5.4412822265625 1.0686884999999997 Q 5.4457822265625 1.0731884999999997 5.4457822265625 1.0791884999999997 Q 5.4457822265625 1.0821884999999996 5.4450322265625 1.0844384999999996 Q 5.4442822265625 1.0866884999999997 5.4427822265625 1.0889384999999998 L 5.2627822265625 1.3949384999999996 L 5.2627822265625 1.5719384999999997 Q 5.2627822265625 1.5794384999999997 5.2579072265625 1.5843134999999997 Q 5.2530322265625 1.5891884999999997 5.2447822265625 1.5891884999999997 L 5.2057822265625 1.5891884999999997 M 5.712764282226562 1.5891884999999997 Q 5.704514282226563 1.5891884999999997 5.7000142822265625 1.5843134999999997 Q 5.695514282226562 1.5794384999999997 5.695514282226562 1.5719384999999997 L 5.695514282226562 1.0821884999999996 Q 5.695514282226562 1.0739384999999997 5.7000142822265625 1.0690634999999995 Q 5.704514282226563 1.0641884999999998 5.712764282226562 1.0641884999999998 L 6.022514282226562 1.0641884999999998 Q 6.030764282226563 1.0641884999999998 6.035264282226563 1.0690634999999995 Q 6.039764282226563 1.0739384999999997 6.039764282226563 1.0821884999999996 L 6.039764282226563 1.1106884999999997 Q 6.039764282226563 1.1189384999999996 6.035264282226563 1.1234384999999998 Q 6.030764282226563 1.1279384999999997 6.022514282226562 1.1279384999999997 L 5.767514282226562 1.1279384999999997 L 5.767514282226562 1.2921884999999997 L 6.0060142822265625 1.2921884999999997 Q 6.014264282226563 1.2921884999999997 6.018764282226562 1.2970634999999997 Q 6.023264282226562 1.3019384999999997 6.023264282226562 1.3101884999999998 L 6.023264282226562 1.3379384999999997 Q 6.023264282226562 1.3454384999999998 6.018764282226562 1.3503134999999997 Q 6.014264282226563 1.3551884999999997 6.0060142822265625 1.3551884999999997 L 5.767514282226562 1.3551884999999997 L 5.767514282226562 1.5254384999999997 L 6.0285142822265625 1.5254384999999997 Q 6.036764282226563 1.5254384999999997 6.041264282226562 1.5299384999999996 Q 6.045764282226562 1.5344384999999996 6.045764282226562 1.5426884999999997 L 6.045764282226562 1.5719384999999997 Q 6.045764282226562 1.5794384999999997 6.041264282226562 1.5843134999999997 Q 6.036764282226563 1.5891884999999997 6.0285142822265625 1.5891884999999997 L 5.712764282226562 1.5891884999999997 M 6.16727783203125 1.5891884999999997 Q 6.15902783203125 1.5891884999999997 6.15452783203125 1.5843134999999997 Q 6.15002783203125 1.5794384999999997 6.15002783203125 1.5719384999999997 L 6.15002783203125 1.0821884999999996 Q 6.15002783203125 1.0739384999999997 6.15452783203125 1.0690634999999995 Q 6.15902783203125 1.0641884999999998 6.16727783203125 1.0641884999999998 L 6.47327783203125 1.0641884999999998 Q 6.48152783203125 1.0641884999999998 6.48640283203125 1.0690634999999995 Q 6.49127783203125 1.0739384999999997 6.49127783203125 1.0821884999999996 L 6.49127783203125 1.1121884999999996 Q 6.49127783203125 1.1204384999999997 6.48640283203125 1.1249384999999996 Q 6.48152783203125 1.1294384999999996 6.47327783203125 1.1294384999999996 L 6.22277783203125 1.1294384999999996 L 6.22277783203125 1.3041884999999995 L 6.45827783203125 1.3041884999999995 Q 6.46652783203125 1.3041884999999995 6.47140283203125 1.3090634999999997 Q 6.47627783203125 1.3139384999999997 6.47627783203125 1.3221884999999998 L 6.47627783203125 1.3521884999999996 Q 6.47627783203125 1.3596884999999996 6.47140283203125 1.3645634999999996 Q 6.46652783203125 1.3694384999999998 6.45827783203125 1.3694384999999998 L 6.22277783203125 1.3694384999999998 L 6.22277783203125 1.5719384999999997 Q 6.22277783203125 1.5794384999999997 6.21790283203125 1.5843134999999997 Q 6.21302783203125 1.5891884999999997 6.20477783203125 1.5891884999999997 L 6.16727783203125 1.5891884999999997 M 6.60526611328125 1.5891884999999997 Q 6.59701611328125 1.5891884999999997 6.59251611328125 1.5843134999999997 Q 6.58801611328125 1.5794384999999997 6.58801611328125 1.5719384999999997 L 6.58801611328125 1.0814384999999995 Q 6.58801611328125 1.0739384999999997 6.59251611328125 1.0690634999999995 Q 6.59701611328125 1.0641884999999998 6.60526611328125 1.0641884999999998 L 6.64501611328125 1.0641884999999998 Q 6.65326611328125 1.0641884999999998 6.65776611328125 1.0690634999999995 Q 6.66226611328125 1.0739384999999997 6.66226611328125 1.0814384999999995 L 6.66226611328125 1.5719384999999997 Q 6.66226611328125 1.5794384999999997 6.65776611328125 1.5843134999999997 Q 6.65326611328125 1.5891884999999997 6.64501611328125 1.5891884999999997 L 6.60526611328125 1.5891884999999997 M 6.981773803710937 1.5966884999999997 Q 6.912773803710937 1.5966884999999997 6.8673988037109375 1.5711884999999997 Q 6.8220238037109375 1.5456884999999996 6.7987738037109375 1.4999384999999996 Q 6.7755238037109375 1.4541884999999997 6.7732738037109375 1.3934384999999996 Q 6.772523803710937 1.3626884999999997 6.772523803710937 1.3274384999999997 Q 6.772523803710937 1.2921884999999997 6.7732738037109375 1.2599384999999996 Q 6.7755238037109375 1.1991884999999995 6.7987738037109375 1.1534384999999996 Q 6.8220238037109375 1.1076884999999996 6.8673988037109375 1.0821884999999996 Q 6.912773803710937 1.0566884999999997 6.981773803710937 1.0566884999999997 Q 7.0335238037109375 1.0566884999999997 7.072523803710937 1.0709384999999996 Q 7.111523803710938 1.0851884999999997 7.137398803710937 1.1091884999999997 Q 7.163273803710937 1.1331884999999997 7.176773803710938 1.1628134999999997 Q 7.190273803710937 1.1924384999999997 7.191773803710937 1.2239384999999996 Q 7.192523803710937 1.2306884999999996 7.187648803710937 1.2351884999999996 Q 7.182773803710938 1.2396884999999997 7.176023803710938 1.2396884999999997 L 7.134773803710938 1.2396884999999997 Q 7.128023803710938 1.2396884999999997 7.123148803710937 1.2359384999999996 Q 7.118273803710937 1.2321884999999997 7.116023803710937 1.2224384999999995 Q 7.1032738037109375 1.1639384999999995 7.068398803710937 1.1421884999999996 Q 7.0335238037109375 1.1204384999999997 6.981773803710937 1.1204384999999997 Q 6.921023803710938 1.1204384999999997 6.885773803710937 1.1545634999999996 Q 6.850523803710938 1.1886884999999996 6.848273803710938 1.2636884999999998 Q 6.8460238037109375 1.3251884999999997 6.848273803710938 1.3896884999999997 Q 6.850523803710938 1.4646884999999996 6.885773803710937 1.4988134999999996 Q 6.921023803710938 1.5329384999999998 6.981773803710937 1.5329384999999998 Q 7.0335238037109375 1.5329384999999998 7.068398803710937 1.5111884999999996 Q 7.1032738037109375 1.4894384999999997 7.116023803710937 1.4309384999999997 Q 7.118273803710937 1.4211884999999997 7.123148803710937 1.4174384999999996 Q 7.128023803710938 1.4136884999999997 7.134773803710938 1.4136884999999997 L 7.176023803710938 1.4136884999999997 Q 7.182773803710938 1.4136884999999997 7.187648803710937 1.4178134999999996 Q 7.192523803710937 1.4219384999999996 7.191773803710937 1.4286884999999996 Q 7.190273803710937 1.4601884999999997 7.176773803710938 1.4901884999999997 Q 7.163273803710937 1.5201884999999997 7.137398803710937 1.5441884999999997 Q 7.111523803710938 1.5681884999999998 7.072523803710937 1.5824384999999996 Q 7.0335238037109375 1.5966884999999997 6.981773803710937 1.5966884999999997 M 7.309535522460937 1.5891884999999997 Q 7.301285522460938 1.5891884999999997 7.2967855224609375 1.5843134999999997 Q 7.292285522460937 1.5794384999999997 7.292285522460937 1.5719384999999997 L 7.292285522460937 1.0814384999999995 Q 7.292285522460937 1.0739384999999997 7.2967855224609375 1.0690634999999995 Q 7.301285522460938 1.0641884999999998 7.309535522460937 1.0641884999999998 L 7.349285522460938 1.0641884999999998 Q 7.357535522460937 1.0641884999999998 7.362035522460937 1.0690634999999995 Q 7.3665355224609375 1.0739384999999997 7.3665355224609375 1.0814384999999995 L 7.3665355224609375 1.5719384999999997 Q 7.3665355224609375 1.5794384999999997 7.362035522460937 1.5843134999999997 Q 7.357535522460937 1.5891884999999997 7.349285522460938 1.5891884999999997 L 7.309535522460937 1.5891884999999997 M 7.514293212890625 1.5891884999999997 Q 7.506043212890625 1.5891884999999997 7.501543212890625 1.5843134999999997 Q 7.497043212890625 1.5794384999999997 7.497043212890625 1.5719384999999997 L 7.497043212890625 1.0821884999999996 Q 7.497043212890625 1.0739384999999997 7.501543212890625 1.0690634999999995 Q 7.506043212890625 1.0641884999999998 7.514293212890625 1.0641884999999998 L 7.824043212890625 1.0641884999999998 Q 7.832293212890625 1.0641884999999998 7.836793212890625 1.0690634999999995 Q 7.841293212890625 1.0739384999999997 7.841293212890625 1.0821884999999996 L 7.841293212890625 1.1106884999999997 Q 7.841293212890625 1.1189384999999996 7.836793212890625 1.1234384999999998 Q 7.832293212890625 1.1279384999999997 7.824043212890625 1.1279384999999997 L 7.569043212890625 1.1279384999999997 L 7.569043212890625 1.2921884999999997 L 7.807543212890625 1.2921884999999997 Q 7.815793212890625 1.2921884999999997 7.820293212890625 1.2970634999999997 Q 7.824793212890625 1.3019384999999997 7.824793212890625 1.3101884999999998 L 7.824793212890625 1.3379384999999997 Q 7.824793212890625 1.3454384999999998 7.820293212890625 1.3503134999999997 Q 7.815793212890625 1.3551884999999997 7.807543212890625 1.3551884999999997 L 7.569043212890625 1.3551884999999997 L 7.569043212890625 1.5254384999999997 L 7.830043212890625 1.5254384999999997 Q 7.838293212890625 1.5254384999999997 7.842793212890625 1.5299384999999996 Q 7.847293212890625 1.5344384999999996 7.847293212890625 1.5426884999999997 L 7.847293212890625 1.5719384999999997 Q 7.847293212890625 1.5794384999999997 7.842793212890625 1.5843134999999997 Q 7.838293212890625 1.5891884999999997 7.830043212890625 1.5891884999999997 L 7.514293212890625 1.5891884999999997 M 7.968806762695312 1.5891884999999997 Q 7.960556762695313 1.5891884999999997 7.9560567626953125 1.5843134999999997 Q 7.951556762695312 1.5794384999999997 7.951556762695312 1.5719384999999997 L 7.951556762695312 1.0821884999999996 Q 7.951556762695312 1.0739384999999997 7.9560567626953125 1.0690634999999995 Q 7.960556762695313 1.0641884999999998 7.968806762695312 1.0641884999999998 L 8.003306762695313 1.0641884999999998 Q 8.012306762695312 1.0641884999999998 8.016806762695312 1.0683134999999997 Q 8.021306762695312 1.0724384999999996 8.022056762695312 1.0746884999999997 L 8.271056762695313 1.4571884999999996 L 8.271056762695313 1.0821884999999996 Q 8.271056762695313 1.0739384999999997 8.275556762695313 1.0690634999999995 Q 8.280056762695313 1.0641884999999998 8.288306762695312 1.0641884999999998 L 8.324306762695313 1.0641884999999998 Q 8.332556762695312 1.0641884999999998 8.337431762695312 1.0690634999999995 Q 8.342306762695312 1.0739384999999997 8.342306762695312 1.0821884999999996 L 8.342306762695312 1.5711884999999997 Q 8.342306762695312 1.5786884999999997 8.337431762695312 1.5839384999999997 Q 8.332556762695312 1.5891884999999997 8.325056762695313 1.5891884999999997 L 8.289056762695312 1.5891884999999997 Q 8.280806762695313 1.5891884999999997 8.276681762695313 1.5846884999999997 Q 8.272556762695313 1.5801884999999998 8.271056762695313 1.5786884999999997 L 8.022806762695312 1.1999384999999996 L 8.022806762695312 1.5719384999999997 Q 8.022806762695312 1.5794384999999997 8.017931762695312 1.5843134999999997 Q 8.013056762695312 1.5891884999999997 8.004806762695312 1.5891884999999997 L 7.968806762695312 1.5891884999999997 M 8.661812255859376 1.5966884999999997 Q 8.592812255859375 1.5966884999999997 8.547437255859375 1.5711884999999997 Q 8.502062255859375 1.5456884999999996 8.478812255859374 1.4999384999999996 Q 8.455562255859375 1.4541884999999997 8.453312255859375 1.3934384999999996 Q 8.452562255859375 1.3626884999999997 8.452562255859375 1.3274384999999997 Q 8.452562255859375 1.2921884999999997 8.453312255859375 1.2599384999999996 Q 8.455562255859375 1.1991884999999995 8.478812255859374 1.1534384999999996 Q 8.502062255859375 1.1076884999999996 8.547437255859375 1.0821884999999996 Q 8.592812255859375 1.0566884999999997 8.661812255859376 1.0566884999999997 Q 8.713562255859374 1.0566884999999997 8.752562255859376 1.0709384999999996 Q 8.791562255859375 1.0851884999999997 8.817437255859375 1.1091884999999997 Q 8.843312255859376 1.1331884999999997 8.856812255859374 1.1628134999999997 Q 8.870312255859375 1.1924384999999997 8.871812255859375 1.2239384999999996 Q 8.872562255859375 1.2306884999999996 8.867687255859375 1.2351884999999996 Q 8.862812255859374 1.2396884999999997 8.856062255859374 1.2396884999999997 L 8.814812255859374 1.2396884999999997 Q 8.808062255859374 1.2396884999999997 8.803187255859376 1.2359384999999996 Q 8.798312255859376 1.2321884999999997 8.796062255859376 1.2224384999999995 Q 8.783312255859375 1.1639384999999995 8.748437255859375 1.1421884999999996 Q 8.713562255859374 1.1204384999999997 8.661812255859376 1.1204384999999997 Q 8.601062255859375 1.1204384999999997 8.565812255859376 1.1545634999999996 Q 8.530562255859374 1.1886884999999996 8.528312255859374 1.2636884999999998 Q 8.526062255859374 1.3251884999999997 8.528312255859374 1.3896884999999997 Q 8.530562255859374 1.4646884999999996 8.565812255859376 1.4988134999999996 Q 8.601062255859375 1.5329384999999998 8.661812255859376 1.5329384999999998 Q 8.713562255859374 1.5329384999999998 8.748437255859375 1.5111884999999996 Q 8.783312255859375 1.4894384999999997 8.796062255859376 1.4309384999999997 Q 8.798312255859376 1.4211884999999997 8.803187255859376 1.4174384999999996 Q 8.808062255859374 1.4136884999999997 8.814812255859374 1.4136884999999997 L 8.856062255859374 1.4136884999999997 Q 8.862812255859374 1.4136884999999997 8.867687255859375 1.4178134999999996 Q 8.872562255859375 1.4219384999999996 8.871812255859375 1.4286884999999996 Q 8.870312255859375 1.4601884999999997 8.856812255859374 1.4901884999999997 Q 8.843312255859376 1.5201884999999997 8.817437255859375 1.5441884999999997 Q 8.791562255859375 1.5681884999999998 8.752562255859376 1.5824384999999996 Q 8.713562255859374 1.5966884999999997 8.661812255859376 1.5966884999999997 M 8.989573974609375 1.5891884999999997 Q 8.981323974609374 1.5891884999999997 8.976823974609376 1.5843134999999997 Q 8.972323974609376 1.5794384999999997 8.972323974609376 1.5719384999999997 L 8.972323974609376 1.0814384999999995 Q 8.972323974609376 1.0739384999999997 8.976823974609376 1.0690634999999995 Q 8.981323974609374 1.0641884999999998 8.989573974609375 1.0641884999999998 L 9.029323974609374 1.0641884999999998 Q 9.037573974609375 1.0641884999999998 9.042073974609375 1.0690634999999995 Q 9.046573974609375 1.0739384999999997 9.046573974609375 1.0814384999999995 L 9.046573974609375 1.5719384999999997 Q 9.046573974609375 1.5794384999999997 9.042073974609375 1.5843134999999997 Q 9.037573974609375 1.5891884999999997 9.029323974609374 1.5891884999999997 L 8.989573974609375 1.5891884999999997 M 9.141831665039062 1.5891884999999997 Q 9.135831665039062 1.5891884999999997 9.131331665039063 1.5846884999999997 Q 9.126831665039063 1.5801884999999998 9.126831665039063 1.5741884999999998 Q 9.126831665039063 1.5704384999999996 9.127581665039063 1.5659384999999997 L 9.313581665039063 1.0806884999999995 Q 9.316581665039063 1.0731884999999997 9.321831665039063 1.0686884999999997 Q 9.327081665039062 1.0641884999999998 9.337581665039062 1.0641884999999998 L 9.388581665039062 1.0641884999999998 Q 9.399081665039063 1.0641884999999998 9.404331665039063 1.0686884999999997 Q 9.409581665039063 1.0731884999999997 9.412581665039063 1.0806884999999995 L 9.597831665039063 1.5659384999999997 Q 9.599331665039063 1.5704384999999996 9.599331665039063 1.5741884999999998 Q 9.599331665039063 1.5801884999999998 9.594831665039063 1.5846884999999997 Q 9.590331665039063 1.5891884999999997 9.584331665039063 1.5891884999999997 L 9.546081665039063 1.5891884999999997 Q 9.537081665039063 1.5891884999999997 9.532956665039062 1.5846884999999997 Q 9.528831665039062 1.5801884999999998 9.527331665039062 1.5764384999999996 L 9.486081665039062 1.4699384999999996 L 9.240081665039062 1.4699384999999996 L 9.198831665039062 1.5764384999999996 Q 9.198081665039062 1.5801884999999998 9.193581665039062 1.5846884999999997 Q 9.189081665039062 1.5891884999999997 9.180081665039063 1.5891884999999997 L 9.141831665039062 1.5891884999999997 M 9.261831665039063 1.4054384999999996 L 9.464331665039062 1.4054384999999996 L 9.363081665039063 1.1391884999999997 L 9.261831665039063 1.4054384999999996" fill="#3361e1" fill-rule="nonzero"></path></g></g><defs><clipPath id="SvgjsClipPath50591"><path d=" M -6.340851121369768 -1.255695947066625 h 5.940851121369768 v 4.1005803941332495 h -5.940851121369768 Z"></path></clipPath><clipPath id="c8be6ae6d-71de-4f47-8942-6d697bb637ba36421df5-536f-40b2-8afd-736454d2fb1b"><path d=" M -4.384529469688581 -0.9744087587315554 L -0.29975549533066204 -0.9744087587315554 L -0.29975549533066204 2.589767566699176 L -4.384529469688581 2.589767566699176 Z"></path></clipPath><clipPath id="d8be6ae6d-71de-4f47-8942-6d697bb637ba36421df5-536f-40b2-8afd-736454d2fb1b"><path d=" M -6.440985310430586 -0.4784441203133276 L -3.4970401520425574 -0.4784441203133276 L -3.4970401520425574 2.0979084300324415 L -6.440985310430586 2.0979084300324415 Z"></path></clipPath><clipPath id="e8be6ae6d-71de-4f47-8942-6d697bb637ba36421df5-536f-40b2-8afd-736454d2fb1b"><path d=" M -4.386432019280736 -1.355819884864209 L -3.498241762311287 -1.355819884864209 L -3.498241762311287 0.9105172161492696 L -4.386432019280736 0.9105172161492696 Z"></path></clipPath><clipPath id="f8be6ae6d-71de-4f47-8942-6d697bb637ba36421df5-536f-40b2-8afd-736454d2fb1b"><path d=" M -5.416412287960303 0.11535162081731909 L -2.468061225253599 0.11535162081731909 L -2.468061225253599 2.9449435352978948 L -5.416412287960303 2.9449435352978948 Z"></path></clipPath></defs></svg>