<svg xmlns="http://www.w3.org/2000/svg" version="1.1" xmlns:xlink="http://www.w3.org/1999/xlink" viewBox="0 0 14.639975613657873 10.938593078361567"><g transform="matrix(0.8369147297232166,0,0,0.8369147297232166,2.0857438942156303,8.250801761628145)"><rect width="16.771523004659493" height="16.771523004659493" x="-2.13154739100162" y="-11.709284346009717" fill="#ffffff"></rect><g transform="matrix(1,0,0,1,0,0)" clip-path="url(#SvgjsClipPath72893)"><g clip-path="url(#c3d8dba2f-e61e-40e9-82de-8f93eb68134c77c275d4-602b-4066-b1e2-d7bd1521254f)"><path d=" M 9.899640937143339 -7.031557539144377 L 6.358206028378831 -7.031557539144377 L 4.587671159834315 -3.9646632226606986 L 6.358206028378831 -0.8977689061770198 L 9.899640937143339 -0.8977689061770198 L 11.670358391525593 -3.9646632226606986 Z M 9.147569871500885 -3.668874165525284 L 8.4247125398965 -3.668874165525284 L 8.4247125398965 -2.946016833920897 L 7.833317011463407 -2.946016833920897 L 7.833317011463407 -3.668874165525284 L 7.110459679859021 -3.668874165525284 L 7.110459679859021 -4.260269693958375 L 7.833317011463407 -4.260269693958375 L 7.833317011463407 -4.983127025562762 L 8.4247125398965 -4.983127025562762 L 8.4247125398965 -4.260269693958375 L 9.147569871500885 -4.260269693958375 Z" fill="#b3e6fa" transform="matrix(1,0,0,1,0,0)" fill-rule="nonzero"></path></g><g clip-path="url(#d3d8dba2f-e61e-40e9-82de-8f93eb68134c77c275d4-602b-4066-b1e2-d7bd1521254f)"><path d=" M 2.0886187987155367 -1.7946305411456347 L 0.8379058102108514 -3.9608289200682028 L 2.0886187987155367 -6.127209884828508 L 4.590044775724906 -6.127209884828508 L 5.840757764229592 -3.9608289200682028 L 4.590044775724906 -1.7946305411456347 Z" fill="#80d5ed" transform="matrix(1,0,0,1,0,0)" fill-rule="nonzero"></path></g><g clip-path="url(#e3d8dba2f-e61e-40e9-82de-8f93eb68134c77c275d4-602b-4066-b1e2-d7bd1521254f)"><path d=" M 5.838749320014474 -3.959733405041775 L 4.584384614755031 -3.959733405041775 L 4.584384614755031 -7.727209580925815 L 5.838749320014474 -7.727209580925815 Z" fill="#5db0e6" transform="matrix(1,0,0,1,0,0)" fill-rule="nonzero"></path></g><g clip-path="url(#f3d8dba2f-e61e-40e9-82de-8f93eb68134c77c275d4-602b-4066-b1e2-d7bd1521254f)"><path d=" M 2.9732471825557116 -0.2501369397206519 L 7.455912084859145 -0.2501369397206519 L 7.717192418662096 -0.7064189482276895 L 5.212479896573443 -5.044475867042699 L 2.706306687782887 -0.7034975748238832 Z" fill="#5db0e6" transform="matrix(1,0,0,1,0,0)" fill-rule="nonzero"></path></g></g><g><path d=" M 0.1485 1.0649999999999997 Q 0.132 1.0649999999999997 0.1215 1.0544999999999998 Q 0.111 1.0439999999999998 0.111 1.0274999999999996 L 0.111 0.05249999999999977 Q 0.111 0.03599999999999981 0.1215 0.025499999999999634 Q 0.132 0.01499999999999968 0.1485 0.01499999999999968 L 0.8175 0.01499999999999968 Q 0.834 0.01499999999999968 0.8445 0.025499999999999634 Q 0.855 0.03599999999999981 0.855 0.05249999999999977 L 0.855 0.17999999999999972 Q 0.855 0.19649999999999967 0.8445 0.20699999999999974 Q 0.834 0.2174999999999997 0.8175 0.2174999999999997 L 0.34500000000000003 0.2174999999999997 L 0.34500000000000003 0.47099999999999975 L 0.7875 0.47099999999999975 Q 0.804 0.47099999999999975 0.8145 0.4814999999999997 Q 0.8250000000000001 0.49199999999999966 0.8250000000000001 0.5084999999999997 L 0.8250000000000001 0.6359999999999997 Q 0.8250000000000001 0.6509999999999997 0.8145 0.6614999999999998 Q 0.804 0.6719999999999997 0.7875 0.6719999999999997 L 0.34500000000000003 0.6719999999999997 L 0.34500000000000003 1.0274999999999996 Q 0.34500000000000003 1.0439999999999998 0.3345 1.0544999999999998 Q 0.324 1.0649999999999997 0.3075 1.0649999999999997 L 0.1485 1.0649999999999997 M 1.06051318359375 1.0649999999999997 Q 1.04401318359375 1.0649999999999997 1.0335131835937499 1.0544999999999998 Q 1.02301318359375 1.0439999999999998 1.02301318359375 1.0274999999999996 L 1.02301318359375 0.05249999999999977 Q 1.02301318359375 0.03599999999999981 1.0335131835937499 0.025499999999999634 Q 1.04401318359375 0.01499999999999968 1.06051318359375 0.01499999999999968 L 1.22701318359375 0.01499999999999968 Q 1.24351318359375 0.01499999999999968 1.25401318359375 0.025499999999999634 Q 1.26451318359375 0.03599999999999981 1.26451318359375 0.05249999999999977 L 1.26451318359375 0.8639999999999997 L 1.7295131835937498 0.8639999999999997 Q 1.74601318359375 0.8639999999999997 1.75651318359375 0.8744999999999997 Q 1.76701318359375 0.8849999999999998 1.76701318359375 0.9014999999999997 L 1.76701318359375 1.0274999999999996 Q 1.76701318359375 1.0439999999999998 1.75651318359375 1.0544999999999998 Q 1.74601318359375 1.0649999999999997 1.7295131835937498 1.0649999999999997 L 1.06051318359375 1.0649999999999997 M 1.8420322265625 1.0649999999999997 Q 1.8285322265625 1.0649999999999997 1.8195322265624998 1.0552499999999998 Q 1.8105322265625 1.0454999999999997 1.8105322265625 1.0334999999999996 Q 1.8105322265625 1.0259999999999998 1.8120322265625 1.0199999999999998 L 2.1690322265625 0.05549999999999966 Q 2.1735322265625 0.0389999999999997 2.1870322265624997 0.02699999999999969 Q 2.2005322265625 0.01499999999999968 2.2245322265625 0.01499999999999968 L 2.4165322265625 0.01499999999999968 Q 2.4405322265625 0.01499999999999968 2.4540322265625 0.02699999999999969 Q 2.4675322265624997 0.0389999999999997 2.4720322265625 0.05549999999999966 L 2.8290322265625 1.0199999999999998 Q 2.8305322265625 1.0259999999999998 2.8305322265625 1.0334999999999996 Q 2.8305322265625 1.0454999999999997 2.8215322265625 1.0552499999999998 Q 2.8125322265625 1.0649999999999997 2.7990322265625 1.0649999999999997 L 2.6430322265625 1.0649999999999997 Q 2.6205322265625 1.0649999999999997 2.6100322265625 1.0544999999999998 Q 2.5995322265625 1.0439999999999998 2.5965322265625 1.0349999999999997 L 2.5320322265625 0.8669999999999998 L 2.1090322265625 0.8669999999999998 L 2.0445322265624997 1.0349999999999997 Q 2.0415322265625 1.0439999999999998 2.0310322265625 1.0544999999999998 Q 2.0205322265625 1.0649999999999997 1.9980322265625 1.0649999999999997 L 1.8420322265625 1.0649999999999997 M 2.1645322265624998 0.6734999999999998 L 2.4750322265625 0.6734999999999998 L 2.3205322265625 0.24149999999999971 L 2.1645322265624998 0.6734999999999998 M 3.3195219726562497 1.0799999999999996 Q 3.17552197265625 1.0799999999999996 3.07877197265625 1.0379999999999998 Q 2.98202197265625 0.9959999999999998 2.9325219726562497 0.9284999999999997 Q 2.88302197265625 0.8609999999999998 2.88002197265625 0.7844999999999998 Q 2.88002197265625 0.7724999999999997 2.88902197265625 0.7627499999999997 Q 2.8980219726562497 0.7529999999999997 2.91152197265625 0.7529999999999997 L 3.0720219726562497 0.7529999999999997 Q 3.09152197265625 0.7529999999999997 3.10202197265625 0.7612499999999998 Q 3.11252197265625 0.7694999999999997 3.1215219726562498 0.7814999999999996 Q 3.1320219726562497 0.8069999999999997 3.1552719726562497 0.8309999999999997 Q 3.1785219726562497 0.8549999999999998 3.21902197265625 0.8707499999999997 Q 3.2595219726562497 0.8864999999999997 3.3195219726562497 0.8864999999999997 Q 3.41702197265625 0.8864999999999997 3.46577197265625 0.8549999999999998 Q 3.51452197265625 0.8234999999999997 3.51452197265625 0.7694999999999997 Q 3.51452197265625 0.7304999999999997 3.48827197265625 0.7064999999999997 Q 3.46202197265625 0.6824999999999997 3.40577197265625 0.6629999999999997 Q 3.34952197265625 0.6434999999999997 3.25652197265625 0.6209999999999998 Q 3.1440219726562497 0.5969999999999998 3.06527197265625 0.5587499999999997 Q 2.98652197265625 0.5204999999999997 2.94677197265625 0.45974999999999966 Q 2.9070219726562496 0.3989999999999997 2.9070219726562496 0.3089999999999997 Q 2.9070219726562496 0.21899999999999975 2.9565219726562497 0.14924999999999966 Q 3.00602197265625 0.07949999999999968 3.0960219726562497 0.03974999999999973 Q 3.18602197265625 -2.220446049250313e-16 3.31052197265625 -2.220446049250313e-16 Q 3.4110219726562496 -2.220446049250313e-16 3.48827197265625 0.02699999999999969 Q 3.5655219726562497 0.053999999999999604 3.61727197265625 0.0974999999999997 Q 3.6690219726562496 0.14099999999999968 3.6960219726562498 0.19049999999999967 Q 3.72302197265625 0.23999999999999966 3.72452197265625 0.28649999999999975 Q 3.72452197265625 0.29849999999999965 3.7155219726562496 0.3082499999999997 Q 3.7065219726562497 0.3179999999999997 3.6930219726562497 0.3179999999999997 L 3.52502197265625 0.3179999999999997 Q 3.51002197265625 0.3179999999999997 3.49802197265625 0.3119999999999997 Q 3.48602197265625 0.3059999999999997 3.47852197265625 0.2909999999999997 Q 3.46952197265625 0.25199999999999967 3.4252719726562497 0.22274999999999967 Q 3.38102197265625 0.19349999999999967 3.31052197265625 0.19349999999999967 Q 3.2370219726562497 0.19349999999999967 3.19427197265625 0.2204999999999997 Q 3.15152197265625 0.24749999999999972 3.15152197265625 0.3029999999999997 Q 3.15152197265625 0.33899999999999975 3.17327197265625 0.3637499999999997 Q 3.19502197265625 0.38849999999999973 3.2467719726562496 0.40724999999999967 Q 3.29852197265625 0.4259999999999997 3.38402197265625 0.4484999999999997 Q 3.51602197265625 0.4754999999999997 3.5985219726562496 0.5129999999999997 Q 3.68102197265625 0.5504999999999998 3.72002197265625 0.6097499999999998 Q 3.75902197265625 0.6689999999999997 3.75902197265625 0.7589999999999997 Q 3.75902197265625 0.8594999999999997 3.70277197265625 0.9314999999999998 Q 3.6465219726562497 1.0034999999999998 3.54827197265625 1.0417499999999997 Q 3.4500219726562498 1.0799999999999996 3.3195219726562497 1.0799999999999996 M 3.9554882812499996 1.0649999999999997 Q 3.93898828125 1.0649999999999997 3.92848828125 1.0544999999999998 Q 3.91798828125 1.0439999999999998 3.91798828125 1.0274999999999996 L 3.91798828125 0.05249999999999977 Q 3.91798828125 0.03599999999999981 3.92848828125 0.025499999999999634 Q 3.93898828125 0.01499999999999968 3.9554882812499996 0.01499999999999968 L 4.11448828125 0.01499999999999968 Q 4.13098828125 0.01499999999999968 4.14148828125 0.025499999999999634 Q 4.1519882812499995 0.03599999999999981 4.1519882812499995 0.05249999999999977 L 4.1519882812499995 0.39449999999999974 L 4.46098828125 0.04349999999999965 Q 4.46698828125 0.03449999999999975 4.48123828125 0.024749999999999606 Q 4.49548828125 0.01499999999999968 4.51948828125 0.01499999999999968 L 4.70098828125 0.01499999999999968 Q 4.7144882812499995 0.01499999999999968 4.72348828125 0.024749999999999606 Q 4.732488281249999 0.03449999999999975 4.732488281249999 0.046499999999999764 Q 4.732488281249999 0.05699999999999972 4.72648828125 0.06449999999999978 L 4.34098828125 0.5174999999999997 L 4.75498828125 1.0154999999999996 Q 4.7609882812499995 1.0214999999999996 4.7609882812499995 1.0334999999999996 Q 4.7609882812499995 1.0454999999999997 4.75198828125 1.0552499999999998 Q 4.74298828125 1.0649999999999997 4.72948828125 1.0649999999999997 L 4.54198828125 1.0649999999999997 Q 4.51498828125 1.0649999999999997 4.5014882812499994 1.0529999999999997 Q 4.48798828125 1.0409999999999997 4.48348828125 1.0364999999999998 L 4.1519882812499995 0.6524999999999996 L 4.1519882812499995 1.0274999999999996 Q 4.1519882812499995 1.0439999999999998 4.14148828125 1.0544999999999998 Q 4.13098828125 1.0649999999999997 4.11448828125 1.0649999999999997 L 3.9554882812499996 1.0649999999999997 M 5.245487548828125 1.0649999999999997 Q 5.230487548828124 1.0649999999999997 5.219237548828125 1.0544999999999998 Q 5.207987548828124 1.0439999999999998 5.207987548828124 1.0274999999999996 L 5.207987548828124 0.05249999999999977 Q 5.207987548828124 0.03599999999999981 5.219237548828125 0.025499999999999634 Q 5.230487548828124 0.01499999999999968 5.245487548828125 0.01499999999999968 L 5.384987548828125 0.01499999999999968 Q 5.407487548828125 0.01499999999999968 5.418737548828124 0.02699999999999969 Q 5.429987548828125 0.0389999999999997 5.434487548828125 0.04499999999999971 L 5.710487548828125 0.5534999999999997 L 5.989487548828125 0.04499999999999971 Q 5.992487548828125 0.0389999999999997 6.003737548828124 0.02699999999999969 Q 6.014987548828125 0.01499999999999968 6.037487548828125 0.01499999999999968 L 6.176987548828125 0.01499999999999968 Q 6.1934875488281245 0.01499999999999968 6.203987548828125 0.025499999999999634 Q 6.214487548828124 0.03599999999999981 6.214487548828124 0.05249999999999977 L 6.214487548828124 1.0274999999999996 Q 6.214487548828124 1.0439999999999998 6.203987548828125 1.0544999999999998 Q 6.1934875488281245 1.0649999999999997 6.176987548828125 1.0649999999999997 L 6.023987548828124 1.0649999999999997 Q 6.008987548828125 1.0649999999999997 5.998487548828125 1.0544999999999998 Q 5.987987548828125 1.0439999999999998 5.987987548828125 1.0274999999999996 L 5.987987548828125 0.42149999999999976 L 5.797487548828125 0.7784999999999997 Q 5.789987548828124 0.7919999999999997 5.777987548828125 0.8024999999999998 Q 5.765987548828125 0.8129999999999997 5.746487548828124 0.8129999999999997 L 5.675987548828124 0.8129999999999997 Q 5.6564875488281245 0.8129999999999997 5.644487548828125 0.8024999999999998 Q 5.6324875488281245 0.7919999999999997 5.624987548828125 0.7784999999999997 L 5.434487548828125 0.42149999999999976 L 5.434487548828125 1.0274999999999996 Q 5.434487548828125 1.0439999999999998 5.423987548828125 1.0544999999999998 Q 5.413487548828124 1.0649999999999997 5.3984875488281245 1.0649999999999997 L 5.245487548828125 1.0649999999999997 M 6.373442138671875 1.0649999999999997 Q 6.359942138671874 1.0649999999999997 6.350942138671875 1.0552499999999998 Q 6.341942138671874 1.0454999999999997 6.341942138671874 1.0334999999999996 Q 6.341942138671874 1.0259999999999998 6.3434421386718745 1.0199999999999998 L 6.700442138671875 0.05549999999999966 Q 6.704942138671875 0.0389999999999997 6.7184421386718745 0.02699999999999969 Q 6.731942138671875 0.01499999999999968 6.755942138671875 0.01499999999999968 L 6.947942138671874 0.01499999999999968 Q 6.971942138671874 0.01499999999999968 6.985442138671875 0.02699999999999969 Q 6.998942138671874 0.0389999999999997 7.003442138671875 0.05549999999999966 L 7.360442138671875 1.0199999999999998 Q 7.361942138671875 1.0259999999999998 7.361942138671875 1.0334999999999996 Q 7.361942138671875 1.0454999999999997 7.3529421386718745 1.0552499999999998 Q 7.343942138671874 1.0649999999999997 7.3304421386718746 1.0649999999999997 L 7.174442138671875 1.0649999999999997 Q 7.151942138671875 1.0649999999999997 7.1414421386718745 1.0544999999999998 Q 7.130942138671875 1.0439999999999998 7.127942138671875 1.0349999999999997 L 7.063442138671874 0.8669999999999998 L 6.640442138671874 0.8669999999999998 L 6.575942138671874 1.0349999999999997 Q 6.572942138671874 1.0439999999999998 6.562442138671875 1.0544999999999998 Q 6.551942138671874 1.0649999999999997 6.529442138671874 1.0649999999999997 L 6.373442138671875 1.0649999999999997 M 6.6959421386718745 0.6734999999999998 L 7.006442138671875 0.6734999999999998 L 6.851942138671875 0.24149999999999971 L 6.6959421386718745 0.6734999999999998 M 7.526911376953125 1.0649999999999997 Q 7.510411376953124 1.0649999999999997 7.499911376953125 1.0544999999999998 Q 7.489411376953124 1.0439999999999998 7.489411376953124 1.0274999999999996 L 7.489411376953124 0.05249999999999977 Q 7.489411376953124 0.03599999999999981 7.499911376953125 0.025499999999999634 Q 7.510411376953124 0.01499999999999968 7.526911376953125 0.01499999999999968 L 7.663411376953125 0.01499999999999968 Q 7.685911376953125 0.01499999999999968 7.696411376953124 0.025499999999999634 Q 7.706911376953125 0.03599999999999981 7.709911376953125 0.04199999999999959 L 8.110411376953124 0.6674999999999998 L 8.110411376953124 0.05249999999999977 Q 8.110411376953124 0.03599999999999981 8.120911376953124 0.025499999999999634 Q 8.131411376953125 0.01499999999999968 8.146411376953125 0.01499999999999968 L 8.299411376953124 0.01499999999999968 Q 8.315911376953125 0.01499999999999968 8.326411376953125 0.025499999999999634 Q 8.336911376953125 0.03599999999999981 8.336911376953125 0.05249999999999977 L 8.336911376953125 1.0274999999999996 Q 8.336911376953125 1.0424999999999998 8.326411376953125 1.0537499999999997 Q 8.315911376953125 1.0649999999999997 8.299411376953124 1.0649999999999997 L 8.161411376953124 1.0649999999999997 Q 8.138911376953125 1.0649999999999997 8.129161376953125 1.0537499999999997 Q 8.119411376953124 1.0424999999999998 8.114911376953124 1.0379999999999998 L 7.715911376953125 0.4319999999999997 L 7.715911376953125 1.0274999999999996 Q 7.715911376953125 1.0439999999999998 7.7054113769531245 1.0544999999999998 Q 7.694911376953124 1.0649999999999997 7.678411376953124 1.0649999999999997 L 7.526911376953125 1.0649999999999997 M 8.495930419921875 1.0649999999999997 Q 8.482430419921874 1.0649999999999997 8.473430419921874 1.0552499999999998 Q 8.464430419921875 1.0454999999999997 8.464430419921875 1.0334999999999996 Q 8.464430419921875 1.0259999999999998 8.465930419921875 1.0199999999999998 L 8.822930419921875 0.05549999999999966 Q 8.827430419921875 0.0389999999999997 8.840930419921875 0.02699999999999969 Q 8.854430419921874 0.01499999999999968 8.878430419921875 0.01499999999999968 L 9.070430419921875 0.01499999999999968 Q 9.094430419921874 0.01499999999999968 9.107930419921875 0.02699999999999969 Q 9.121430419921875 0.0389999999999997 9.125930419921875 0.05549999999999966 L 9.482930419921875 1.0199999999999998 Q 9.484430419921875 1.0259999999999998 9.484430419921875 1.0334999999999996 Q 9.484430419921875 1.0454999999999997 9.475430419921874 1.0552499999999998 Q 9.466430419921874 1.0649999999999997 9.452930419921874 1.0649999999999997 L 9.296930419921875 1.0649999999999997 Q 9.274430419921874 1.0649999999999997 9.263930419921875 1.0544999999999998 Q 9.253430419921875 1.0439999999999998 9.250430419921875 1.0349999999999997 L 9.185930419921874 0.8669999999999998 L 8.762930419921874 0.8669999999999998 L 8.698430419921875 1.0349999999999997 Q 8.695430419921875 1.0439999999999998 8.684930419921875 1.0544999999999998 Q 8.674430419921874 1.0649999999999997 8.651930419921875 1.0649999999999997 L 8.495930419921875 1.0649999999999997 M 8.818430419921874 0.6734999999999998 L 9.128930419921874 0.6734999999999998 L 8.974430419921875 0.24149999999999971 L 8.818430419921874 0.6734999999999998 M 10.010877685546875 1.0799999999999996 Q 9.869877685546875 1.0799999999999996 9.770127685546875 1.0327499999999996 Q 9.670377685546875 0.9854999999999997 9.615627685546874 0.8947499999999997 Q 9.560877685546874 0.8039999999999997 9.556377685546874 0.6749999999999997 Q 9.554877685546874 0.6104999999999997 9.554877685546874 0.5369999999999997 Q 9.554877685546874 0.4634999999999997 9.556377685546874 0.39749999999999974 Q 9.560877685546874 0.27149999999999974 9.615627685546874 0.18299999999999972 Q 9.670377685546875 0.0944999999999997 9.771627685546875 0.04724999999999979 Q 9.872877685546875 -2.220446049250313e-16 10.010877685546875 -2.220446049250313e-16 Q 10.121877685546874 -2.220446049250313e-16 10.205877685546874 0.028499999999999748 Q 10.289877685546875 0.05699999999999972 10.346877685546875 0.10274999999999967 Q 10.403877685546874 0.14849999999999974 10.433877685546875 0.20249999999999968 Q 10.463877685546874 0.25649999999999973 10.465377685546875 0.3059999999999997 Q 10.465377685546875 0.3194999999999997 10.456377685546874 0.3292499999999997 Q 10.447377685546874 0.33899999999999975 10.432377685546875 0.33899999999999975 L 10.246377685546875 0.33899999999999975 Q 10.231377685546875 0.33899999999999975 10.223127685546874 0.33299999999999974 Q 10.214877685546874 0.32699999999999974 10.208877685546874 0.3149999999999997 Q 10.198377685546875 0.2879999999999997 10.175127685546874 0.26024999999999976 Q 10.151877685546875 0.2324999999999997 10.112877685546874 0.21299999999999975 Q 10.073877685546874 0.19349999999999967 10.010877685546875 0.19349999999999967 Q 9.916377685546875 0.19349999999999967 9.861627685546875 0.24299999999999966 Q 9.806877685546874 0.29249999999999976 9.802377685546874 0.4049999999999997 Q 9.797877685546874 0.5339999999999997 9.802377685546874 0.6674999999999998 Q 9.806877685546874 0.7844999999999998 9.863127685546875 0.8354999999999997 Q 9.919377685546875 0.8864999999999997 10.013877685546875 0.8864999999999997 Q 10.075377685546874 0.8864999999999997 10.124127685546874 0.8647499999999997 Q 10.172877685546874 0.8429999999999997 10.201377685546875 0.7964999999999998 Q 10.229877685546874 0.7499999999999998 10.229877685546874 0.6779999999999997 L 10.229877685546874 0.6404999999999997 L 10.066377685546874 0.6404999999999997 Q 10.051377685546875 0.6404999999999997 10.040877685546874 0.6292499999999996 Q 10.030377685546874 0.6179999999999997 10.030377685546874 0.6029999999999998 L 10.030377685546874 0.5069999999999997 Q 10.030377685546874 0.4904999999999997 10.040877685546874 0.47999999999999976 Q 10.051377685546875 0.4694999999999997 10.066377685546874 0.4694999999999997 L 10.433877685546875 0.4694999999999997 Q 10.450377685546874 0.4694999999999997 10.460877685546874 0.47999999999999976 Q 10.471377685546875 0.4904999999999997 10.471377685546875 0.5069999999999997 L 10.471377685546875 0.6704999999999997 Q 10.471377685546875 0.7994999999999997 10.415127685546874 0.8909999999999997 Q 10.358877685546874 0.9824999999999997 10.254627685546874 1.0312499999999998 Q 10.150377685546875 1.0799999999999996 10.010877685546875 1.0799999999999996 M 10.69041064453125 1.0649999999999997 Q 10.673910644531249 1.0649999999999997 10.663410644531249 1.0544999999999998 Q 10.65291064453125 1.0439999999999998 10.65291064453125 1.0274999999999996 L 10.65291064453125 0.05249999999999977 Q 10.65291064453125 0.03599999999999981 10.663410644531249 0.025499999999999634 Q 10.673910644531249 0.01499999999999968 10.69041064453125 0.01499999999999968 L 11.369910644531249 0.01499999999999968 Q 11.38641064453125 0.01499999999999968 11.39691064453125 0.025499999999999634 Q 11.40741064453125 0.03599999999999981 11.40741064453125 0.05249999999999977 L 11.40741064453125 0.17249999999999965 Q 11.40741064453125 0.18749999999999967 11.39691064453125 0.19799999999999973 Q 11.38641064453125 0.20849999999999969 11.369910644531249 0.20849999999999969 L 10.88391064453125 0.20849999999999969 L 10.88391064453125 0.44399999999999973 L 11.33691064453125 0.44399999999999973 Q 11.35341064453125 0.44399999999999973 11.363910644531249 0.4544999999999997 Q 11.374410644531249 0.46499999999999975 11.374410644531249 0.4814999999999997 L 11.374410644531249 0.5924999999999997 Q 11.374410644531249 0.6074999999999997 11.363910644531249 0.6179999999999997 Q 11.35341064453125 0.6284999999999997 11.33691064453125 0.6284999999999997 L 10.88391064453125 0.6284999999999997 L 10.88391064453125 0.8714999999999997 L 11.38191064453125 0.8714999999999997 Q 11.39841064453125 0.8714999999999997 11.40891064453125 0.8819999999999997 Q 11.419410644531249 0.8924999999999997 11.419410644531249 0.9089999999999997 L 11.419410644531249 1.0274999999999996 Q 11.419410644531249 1.0439999999999998 11.40891064453125 1.0544999999999998 Q 11.39841064453125 1.0649999999999997 11.38191064453125 1.0649999999999997 L 10.69041064453125 1.0649999999999997 M 11.63391796875 1.0649999999999997 Q 11.617417968749999 1.0649999999999997 11.606917968749999 1.0544999999999998 Q 11.59641796875 1.0439999999999998 11.59641796875 1.0274999999999996 L 11.59641796875 0.05249999999999977 Q 11.59641796875 0.03599999999999981 11.606917968749999 0.025499999999999634 Q 11.617417968749999 0.01499999999999968 11.63391796875 0.01499999999999968 L 12.031417968749999 0.01499999999999968 Q 12.218917968749999 0.01499999999999968 12.32691796875 0.10124999999999973 Q 12.43491796875 0.18749999999999967 12.43491796875 0.3494999999999997 Q 12.43491796875 0.45899999999999974 12.38241796875 0.5324999999999998 Q 12.32991796875 0.6059999999999997 12.24141796875 0.6419999999999997 L 12.452917968749999 1.0169999999999997 Q 12.457417968749999 1.0259999999999998 12.457417968749999 1.0334999999999996 Q 12.457417968749999 1.0454999999999997 12.448417968749999 1.0552499999999998 Q 12.43941796875 1.0649999999999997 12.42591796875 1.0649999999999997 L 12.25941796875 1.0649999999999997 Q 12.23241796875 1.0649999999999997 12.218917968749999 1.0507499999999996 Q 12.20541796875 1.0364999999999998 12.19941796875 1.0244999999999997 L 12.01641796875 0.6809999999999997 L 11.83491796875 0.6809999999999997 L 11.83491796875 1.0274999999999996 Q 11.83491796875 1.0439999999999998 11.82441796875 1.0544999999999998 Q 11.81391796875 1.0649999999999997 11.797417968749999 1.0649999999999997 L 11.63391796875 1.0649999999999997 M 11.83491796875 0.4904999999999997 L 12.026917968749999 0.4904999999999997 Q 12.10941796875 0.4904999999999997 12.14916796875 0.45299999999999974 Q 12.18891796875 0.41549999999999976 12.18891796875 0.34799999999999975 Q 12.18891796875 0.28049999999999975 12.14991796875 0.24149999999999971 Q 12.11091796875 0.20249999999999968 12.026917968749999 0.20249999999999968 L 11.83491796875 0.20249999999999968 L 11.83491796875 0.4904999999999997" fill="#ffffff" fill-rule="nonzero"></path></g><g></g></g><defs><clipPath id="SvgjsClipPath72893"><path d=" M 0.8379058102108514 -7.727045687359947 h 10.83261660223455 v 7.477045687359947 h -10.83261660223455 Z"></path></clipPath><clipPath id="c3d8dba2f-e61e-40e9-82de-8f93eb68134c77c275d4-602b-4066-b1e2-d7bd1521254f"><path d=" M 4.4050853220964035 -7.214143376882287 L 11.853309400938976 -7.214143376882287 L 11.853309400938976 -0.7151830684391092 L 4.4050853220964035 -0.7151830684391092 Z"></path></clipPath><clipPath id="d3d8dba2f-e61e-40e9-82de-8f93eb68134c77c275d4-602b-4066-b1e2-d7bd1521254f"><path d=" M 0.6553199724729412 -6.3097957225664185 L 6.023343601967502 -6.3097957225664185 L 6.023343601967502 -1.612044703407724 L 0.6553199724729412 -1.612044703407724 Z"></path></clipPath><clipPath id="e3d8dba2f-e61e-40e9-82de-8f93eb68134c77c275d4-602b-4066-b1e2-d7bd1521254f"><path d=" M 4.401616191179384 -7.909612832825988 L 6.021152571914647 -7.909612832825988 L 6.021152571914647 -3.7771475673038646 L 4.401616191179384 -3.7771475673038646 Z"></path></clipPath><clipPath id="f3d8dba2f-e61e-40e9-82de-8f93eb68134c77c275d4-602b-4066-b1e2-d7bd1521254f"><path d=" M 2.5235382642072386 -5.22706170478061 L 7.8995956705622685 -5.22706170478061 L 7.8995956705622685 -0.06755110198274217 L 2.5235382642072386 -0.06755110198274217 Z"></path></clipPath></defs></svg>